<?xml version="1.0" standalone="no"?><!DOCTYPE svg PUBLIC "-//W3C//DTD SVG 1.1//EN" "http://www.w3.org/Graphics/SVG/1.1/DTD/svg11.dtd"><svg t="1725597282650" class="icon" viewBox="0 0 1024 1024" version="1.1" xmlns="http://www.w3.org/2000/svg" p-id="4455" xmlns:xlink="http://www.w3.org/1999/xlink" width="200" height="200"><path d="M75.09333333 75.09333333m109.22666667 0l655.36 0q109.22666667 0 109.22666667 109.22666667l0 655.36q0 109.22666667-109.22666667 109.22666667l-655.36 0q-109.22666667 0-109.22666667-109.22666667l0-655.36q0-109.22666667 109.22666667-109.22666667Z" fill="#FF4D4F" p-id="4456"></path><path d="M686.36216889 507.99502222h123.68099556s-4.25984-16.27477333-19.07825778-29.78247111a62.69610667 62.69610667 0 0 0-41.14204445-15.47377778c-26.94257778 0-55.23228445 18.93262222-63.46069333 45.21984z m189.61749333 12.74311111c0.43690667 16.52963555-4.29624889 44.74652445-4.29624889 44.74652445h-196.68081778c4.98801778 23.41091555 26.10517333 54.54051555 72.27164445 58.47267555 64.18887111 5.42492445 113.95982222-24.68522667 113.95982222-24.68522666l-9.42990222 52.28316444c-33.45976889 21.2992-67.64771555 32.14904889-107.51544889 32.14904889-84.54144 0-151.35175111-47.40437333-142.24952889-140.53831111 10.19448889-91.45912889 68.52152889-141.37571555 154.55573333-141.70339556 87.59978667 0.76458667 118.00120889 68.15744 119.38474667 119.27552z m-337.61962667-226.35406222h88.03669334l-67.93898667 389.32024889h-88.18232889l-83.26712888-202.87032889-151.0968889 202.87032889H147.91111111l67.90257778-389.32024889h88.03669333l-40.41386667 231.52412444 91.20426667-124.44558222h87.85464889l54.24924444 131.54531556 41.61536-238.62385778z" fill="#FFFFFF" p-id="4457"></path></svg>