<?xml version="1.0" standalone="no"?><!DOCTYPE svg PUBLIC "-//W3C//DTD SVG 1.1//EN" "http://www.w3.org/Graphics/SVG/1.1/DTD/svg11.dtd"><svg t="1724050974301" class="icon" viewBox="0 0 6875 1024" version="1.1" xmlns="http://www.w3.org/2000/svg" p-id="3941" xmlns:xlink="http://www.w3.org/1999/xlink" width="1342.7734375" height="200"><path d="M3402.1011908 179.38571416l-223.03928584 181.70357168h145.67142832V951.71428584l77.36785752-62.325V179.38571416zM3466.38690496 836.64285752l226.96071416-186.26785752h-149.72142832V73.25l-77.23928584 53.775V836.64285752zM6275.67261912 285.48928584c25.71428584 13.37142832 44.22857168 24.68571416 55.54285664 33.94285664l80.22857168-152.74285664c-40.11428584-24.68571416-88.45714248-46.8-145.02857168-66.34285752-55.54285752-19.54285752-115.71428584-29.31428584-180.51428496-29.31428584-61.71428584 0-118.8 10.28571416-171.25714336 30.85714336-51.42857168 20.57142832-92.57142832 50.91428584-123.42857168 91.02857168-29.82857167 40.11428584-44.74285752 90-44.74285664 149.65714248 0 66.85714248 21.08571416 118.28571416 63.25714248 154.28571416 43.2 34.97142832 109.02857168 63.77142833 197.48571416 86.4 70.97142832 18.51428584 128.05714248 35.48571416 171.25714336 50.91428584 44.22857168 14.4 66.34285752 38.57142832 66.34285664 72.51428584 0 50.4-47.31428584 75.6-141.94285664 75.6-47.31428584 0-92.05714248-5.65714248-134.22857168-16.97142832-42.17142832-11.31428584-79.2-25.2-111.08571416-41.65714336-30.85714248-16.45714248-52.97142832-31.37142832-66.34285752-44.74285664l-83.31428496 162c53.48571416 33.94285752 114.68571416 60.68571416 183.6 80.2285708 68.91428584 19.54285752 138.34285752 29.31428584 208.28571416 29.31428584 60.68571416 0 117.25714248-8.22857167 169.71428584-24.68571416 52.45714248-17.48571416 94.62857168-45.25714248 126.51428496-83.31428584 32.91428584-39.08571416 49.37142832-90.51428584 49.3714292-154.28571416 0-52.45714248-12.34285752-94.62857168-37.02857168-126.51428584-23.65714248-32.91428584-58.11428584-59.14285752-103.37142832-78.68571416-44.22857168-19.54285752-96.68571416-37.02857168-157.3714292-52.45714248-68.91428584-16.45714248-121.37142832-31.37142832-157.37142832-44.74285752-34.97142832-13.37142832-52.45714248-36-52.45714248-67.88571416 0-54.51428584 48.34285752-81.77142832 145.0285708-81.77142832 36 0 70.97142832 5.14285752 104.91428584 15.4285708 33.94285752 9.25714248 63.25714248 20.57142832 87.94285752 33.94285752z" fill="#5A29E4" p-id="3942"></path><path d="M4652.04047576 945.83214248c-67.88571416 0-129.6-11.82857168-185.14285664-35.48571416-55.54285752-24.68571416-103.40357167-57.6-143.51785751-98.74285664a457.07142832 457.07142832 0 0 1-92.57142833-141.94285752 422.29285752 422.29285752 0 0 1-32.4-162c0-56.57142832 11.31428584-111.08571416 33.94285752-163.54285664a430.23214248 430.23214248 0 0 1 95.68928496-138.85714336 454.75714248 454.75714248 0 0 1 144.9964292-97.2c55.54285752-23.65714248 116.22857168-35.48571416 182.05714248-35.48571416 67.88571416 0 129.63214248 12.85714248 185.175 38.57142832 55.54285752 24.68571416 102.85714248 58.11428584 141.94285752 100.28571416a438.71785752 438.71785752 0 0 1 92.53928584 140.4 417.95357168 417.95357168 0 0 1 32.43214248 160.45714336c0 56.57142832-11.31428584 111.08571416-33.94285752 163.54285664a453.53571416 453.53571416 0 0 1-95.68928496 138.85714336c-40.11428584 40.11428584-87.91071416 72-143.45357168 95.65714248-55.54285752 23.65714248-116.22857168 35.48571416-182.05714336 35.48571416z m-265.4035708-436.6285708c0 46.28571416 10.83214248 90.51428584 32.43214248 132.68571416a266.27142832 266.27142832 0 0 0 90.99642832 100.28571416c40.11428584 25.71428584 87.94285752 38.57142832 143.48571504 38.57142832 56.57142832 0 104.4-13.37142832 143.48571416-40.11428584 39.11785752-27.77142833 68.91428584-62.22857167 89.48571416-103.37142832 20.57142832-42.17142832 30.88928584-85.37142832 30.88928584-129.6 0-46.28571416-10.8-90-32.4-131.14285664a251.1 251.1 0 0 0-92.60357168-98.74285752c-39.08571416-25.71428584-85.85357168-38.57142832-140.36785752-38.57142832-56.57142832 0-104.94642832 13.37142832-145.06071415 40.11428584a266.01428584 266.01428584 0 0 0-89.48571417 101.8285708 282.98571416 282.98571416 0 0 0-30.85714248 128.05714335zM403.33333328 939.66071416L779.79047576 77.20357168h152.74285752l374.91428584 862.45714248h-197.48571416l-86.4-202.11428584H688.76190496l-86.4 202.11428584H403.33333328zM856.93333328 304.00357167l-126.51428584 271.54285665h248.4l-121.88571416-271.54285665z" fill="#5A29E4" p-id="3943"></path><path d="M2036.86547576 77.20357168l237.6 305.48571416L2512.06547576 77.20357168h202.11428584L2373.20833328 513.83214248l330.17142832 425.82857168H2501.29761912l-226.8-293.14285664-225.25714336 293.14285664h-205.2l331.71428584-425.82857168L1833.20833328 77.20357168h203.65714248z" fill="#5A29E4" p-id="3944"></path></svg>