<?xml version="1.0" standalone="no"?><!DOCTYPE svg PUBLIC "-//W3C//DTD SVG 1.1//EN" "http://www.w3.org/Graphics/SVG/1.1/DTD/svg11.dtd"><svg t="1724050958280" class="icon" viewBox="0 0 1024 1024" version="1.1" xmlns="http://www.w3.org/2000/svg" p-id="3792" xmlns:xlink="http://www.w3.org/1999/xlink" width="200" height="200"><path d="M827.20454521 724.11363652c0 32.11363652-16.97727305 39.47727305-16.97727216 39.47727217L501.97727305 941.54545479A34.56818174 34.56818174 0 0 1 471.09090869 941.54545479S168.36363653 765.63636348 157.31818174 757.45454521a26.38636347 26.38636347 0 0 1-11.25-20.45454521V373.72727305c0-15.95454521 20.45454521-27.20454521 20.45454521-27.2045461l301.7045461-174.88636347a40.90909131 40.90909131 0 0 1 36.61363564-1e-8l295.77272784 172.02272784a42.13636347 42.13636347 0 0 1 25.56818173 42.13636348v338.31818174z m-120.68181826-347.72727305L498.70454521 256.31818174a32.52272695 32.52272695 0 0 0-28.84090869 0L232.38636348 392.34090869s-15.75 9.40909131-15.54545479 22.09090957 0 284.72727305 0 284.72727305a20.45454521 20.45454521 0 0 0 8.79545478 15.34090869c8.79545479 6.13636347 245.45454521 143.18181826 245.45454522 143.18181826a26.79545479 26.79545479 0 0 0 24.34090957 0c14.72727305-8.18181826 241.56818174-138.88636347 241.56818174-138.88636347s13.29545479-5.72727305 13.29545479-30.88636348v-70.97727305l-265.90909131 161.59090869V716.54545479a62.38636348 62.38636348 0 0 1 20.45454521-42.34090958L741.09090869 532.45454521a49.90909131 49.90909131 0 0 0 11.25-29.86363652v-63.61363564l-268.15909043 162v-65.4545461a45.40909131 45.40909131 0 0 1 16.97727305-36.61363564z m195.54545479-228.06818173a7.97727305 7.97727305 0 0 0-7.56818174-8.59090869H839.27272695V83.68181826c0-3.27272695-5.31818174-4.5-10.84090869-4.5L798.36363652 84.09090869c-3.68181826 0-6.34090869 2.45454521-6.34090957 4.7045461V139.72727305H737a8.18181826 8.18181826 0 0 0-7.36363653 7.56818174v40.90909042h61.36363653V246.09090869c0 3.27272695 5.31818174 5.52272695 11.04545479 4.7045461l30.88636347-5.11363653c3.68181826 0 5.93181826-2.65909131 5.93181826-4.70454521V187.59090869h61.36363653z" fill="#409EFF" p-id="3793"></path></svg>