<?xml version="1.0" standalone="no"?><!DOCTYPE svg PUBLIC "-//W3C//DTD SVG 1.1//EN" "http://www.w3.org/Graphics/SVG/1.1/DTD/svg11.dtd"><svg t="1724050980056" class="icon" viewBox="0 0 1024 1024" version="1.1" xmlns="http://www.w3.org/2000/svg" p-id="4092" xmlns:xlink="http://www.w3.org/1999/xlink" width="200" height="200"><path d="M956.133125 735.065c0 122.685-99.541875 222.15375001-222.30937501 222.15375001H289.19c-122.806875 0-222.31124999-99.470625-222.31124999-222.15375001V290.766875c0-122.720625 99.504375-222.155625 222.31124999-222.15562499h444.631875c122.769375 0 222.309375 99.435 222.30937499 222.15562499v444.298125z" fill="#FF651E" p-id="4093"></path><path d="M420.7625 235.229375v75.09937501h-25.9425V285.2h-23.746875v25.12874999h-25.9425v-75.09937499h25.9425v24.80437501h23.746875v-24.80437501h25.9425m0-18.519375h-25.9425c-4.51875001 0-8.65874999 1.618125-11.874375 4.306875a18.4425 18.4425 0 0 0-11.87437501-4.306875h-25.9425c-10.228125 0-18.519375 8.29124999-18.51937499 18.519375v75.09937501c0 10.228125 8.29124999 18.519375 18.51937499 18.51937499h25.9425c4.51875001 0 8.65874999-1.618125 11.87437501-4.30687499a18.4425 18.4425 0 0 0 11.874375 4.30687499h25.9425c10.228125 0 18.519375-8.29124999 18.519375-18.51937499v-75.09937501c0-10.228125-8.29124999-18.519375-18.519375-18.519375z m82.895625 18.519375v24.94875h-22.83187501v50.15062501h-25.94437499v-50.15062501h-22.83v-24.94875h71.60625m0-18.519375h-71.60625c-10.228125 0-18.519375 8.29124999-18.519375 18.519375v24.94875c0 10.228125 8.29124999 18.519375 18.519375 18.519375h4.310625v31.63125001c0 10.228125 8.29124999 18.519375 18.519375 18.51937499h25.94437499c10.228125 0 18.519375-8.29124999 18.51937501-18.51937499v-31.63125001h4.3125c10.228125 0 18.519375-8.29124999 18.519375-18.519375v-24.94875c0.001875-10.228125-8.29124999-18.519375-18.519375-18.519375z m98.746875 18.519375v75.09937501h-25.869375v-37.20562501l-17.8425 26.71875h-0.43125l-17.874375-26.71875v37.20562501h-25.365v-75.09937501h27.065625l16.606875 26.43187501 16.64624999-26.43187501h27.06375001m0-18.519375h-27.065625a18.515625 18.515625 0 0 0-15.669375 8.649375l-0.958125 1.520625-0.945-1.50374999a18.523125 18.523125 0 0 0-15.68062501-8.66625001h-27.06562499c-10.228125 0-18.519375 8.29124999-18.51937501 18.519375v75.09937501c0 10.228125 8.29124999 18.519375 18.51937501 18.51937499h25.365a18.519375 18.519375 0 0 0 16.70812499-10.5225c0.388125 0.024375 0.77625001 0.0375 1.16625001 0.0375h0.43124999c0.37874999 0 0.7575-0.01124999 1.1325-0.035625a18.523125 18.523125 0 0 0 16.70812501 10.520625h25.86937499c10.228125 0 18.519375-8.29124999 18.51937501-18.51937499v-75.09937501c0.00374999-10.228125-8.2875-18.519375-18.515625-18.519375z m38.825625 18.519375v50.295h36.51v24.80437501h-62.45625v-75.09937501h25.94625m0-18.519375h-25.94625c-10.228125 0-18.519375 8.29124999-18.519375 18.519375v75.09937501c0 10.228125 8.29124999 18.519375 18.519375 18.51937499h62.45625c10.228125 0 18.519375-8.29124999 18.519375-18.51937499v-24.80437501c0-10.228125-8.29124999-18.519375-18.519375-18.519375H659.75v-31.775625c0-10.228125-8.29124999-18.519375-18.519375-18.519375z m74.06812499 126.594375h0.00937501m-0.00937501 0l-37.16062499 402.6075-166.700625 44.690625-166.5975-44.72624999-37.125-402.57187501h407.58375001m-317.87437501 231.61875h176.93625l-5.9325 64.03312501-56.915625 14.86312499-0.073125 0.035625-56.88-14.896875-3.76312499-41.11125h-51.23625001l7.273125 79.29375 104.60625 28.059375h0.073125l104.64375001-28.059375 14.00062499-151.63687499H444.104375l-4.66875-50.54625001h195.35625l4.595625-49.355625H383.675l13.749375 149.32125m317.88375-250.138125H307.715a18.523125 18.523125 0 0 0-18.4425 20.22l37.125 402.571875a18.5175 18.5175 0 0 0 13.63875001 16.185l166.5975 44.72625a18.4575 18.4575 0 0 0 9.59812499 0.001875l166.69875-44.690625a18.519375 18.519375 0 0 0 13.644375-16.185l37.1175-402.12375c0.084375-0.71625001 0.1275-1.445625 0.1275-2.18625 0.00374999-10.228125-8.28374999-18.519375-18.511875-18.519375z m-311.330625 119.334375H619.05875001l-1.14562501 12.31687501h-178.48125a18.51375001 18.51375001 0 0 0-18.44062499 20.22187499l4.66874999 50.54625a18.519375 18.519375 0 0 0 18.440625 16.81687501H609.845l-10.948125 118.57124999-87.421875 23.44125001-87.380625-23.43937501-4.24125-46.23h14.03812501l2.22374999 24.27937501a18.5175 18.5175 0 0 0 13.749375 16.22624999l56.88 14.896875a18.47625001 18.47625001 0 0 0 10.093125-0.2025l56.266875-14.6925a18.525 18.525 0 0 0 13.7625-16.21125l5.9325-64.033125a18.5175 18.5175 0 0 0-18.44062501-20.2275h-160.04437499l-10.336875-112.280625z m310.595625 484.245H308.403125c-117.09 0-212.349375-95.28374999-212.34937501-212.40562499V309.835625c0-117.10124999 95.259375-212.368125 212.34937501-212.368125h406.17c117.110625 0 212.385 95.26875001 212.385 212.368125v406.12312499c0.001875 117.12-95.274375 212.405625-212.385 212.40562501zM308.403125 116.03375001c-106.8525 0-193.783125 86.938125-193.783125 193.79999998v406.12312501c0 106.8825 86.930625 193.839375 193.783125 193.83937501h406.17c106.87125001 0 193.81875001-86.956875 193.81875-193.83937501V309.835625c0-106.861875-86.9475-193.8-193.81875-193.8H308.403125z" fill="#80330F" p-id="4094"></path><path d="M371.073125 285.2h23.746875v25.12874999h25.9425v-75.09937499h-25.9425v24.8025h-23.746875v-24.8025h-25.9425v75.09937501h25.9425zM454.88375001 310.32875001h25.94437499v-50.15062501h22.83v-24.94875h-71.60625v24.94875h22.83187501zM540.3875 273.123125l17.874375 26.71875h0.43125l17.8425-26.71875v37.20562499h25.869375v-75.09937499h-27.065625l-16.64625 26.43-16.60687499-26.43h-27.06562501v75.09937499h25.366875zM677.740625 285.524375h-36.51v-50.295h-25.94625v75.09937499h62.45625zM307.715 343.304375l37.125 402.57187499 166.5975 44.72625001 166.69874999-44.690625 37.16062501-402.6075H307.715z m327.073125 131.65125h-195.35625l4.66875 50.54625H630.153125l-14.000625 151.63687499-104.64375001 28.05937501h-0.07124999l-104.60625001-28.05937499-7.27312499-79.29375001h51.23625l3.763125 41.11125001 56.88 14.89687499 0.073125-0.035625 56.91562499-14.863125 5.9325-64.03312499h-176.93624999l-13.749375-149.32312501h255.70875l-4.59375 49.3575z" fill="#FFFFFF" p-id="4095"></path><path d="M371.073125 285.2h23.746875v25.12874999h25.9425v-75.09937499h-25.9425v24.8025h-23.746875v-24.8025h-25.9425v75.09937501h25.9425zM454.88375001 310.32875001h25.94437499v-50.15062501h22.83v-24.94875h-71.60625v24.94875h22.83187501zM540.3875 273.123125l17.874375 26.71875h0.43125l17.8425-26.71875v37.20562499h25.869375v-75.09937499h-27.065625l-16.64625 26.43-16.60687499-26.43h-27.06562501v75.09937499h25.366875zM677.740625 285.524375h-36.51v-50.295h-25.94625v75.09937499h62.45625zM307.715 343.304375l37.125 402.57187499 166.5975 44.72625001 166.69874999-44.690625 37.16062501-402.6075H307.715z m327.073125 131.65125h-195.35625l4.66875 50.54625H630.153125l-14.000625 151.63687499-104.64375001 28.05937501h-0.07124999l-104.60625001-28.05937499-7.27312499-79.29375001h51.23625l3.763125 41.11125001 56.88 14.89687499 0.073125-0.035625 56.91562499-14.863125 5.9325-64.03312499h-176.93624999l-13.749375-149.32312501h255.70875l-4.59375 49.3575z" fill="#FFFFFF" p-id="4096"></path></svg>