<?xml version="1.0" standalone="no"?><!DOCTYPE svg PUBLIC "-//W3C//DTD SVG 1.1//EN" "http://www.w3.org/Graphics/SVG/1.1/DTD/svg11.dtd"><svg t="1727254625833" class="icon" viewBox="0 0 1024 1024" version="1.1" xmlns="http://www.w3.org/2000/svg" p-id="4134" xmlns:xlink="http://www.w3.org/1999/xlink" width="200" height="200"><path d="M260.6592 239.7184V124.5184c0-28.8768 23.4496-52.3264 52.3264-52.3264h397.9264c28.8768 0 52.3264 23.4496 52.3264 52.3264v115.2H260.6592zM763.3408 899.4816c0 28.8768-23.4496 52.3264-52.3264 52.3264H312.9856c-28.8768 0-52.3264-23.4496-52.3264-52.3264V616.7552H763.3408v282.7264z m-209.408-94.208c0-11.5712-9.4208-20.992-20.992-20.992H365.4144c-11.5712 0-20.992 9.4208-20.992 20.992s9.4208 20.992 20.992 20.992H532.9408a21.0944 21.0944 0 0 0 20.992-20.992z m125.6448 0c0-11.5712-9.4208-20.992-20.992-20.992h-41.8816c-11.5712 0-20.992 9.4208-20.992 20.992s9.4208 20.992 20.992 20.992h41.8816a21.0944 21.0944 0 0 0 20.992-20.992z m0-125.7472c0-11.5712-9.4208-20.992-20.992-20.992H365.4144c-11.5712 0-20.992 9.4208-20.992 20.992s9.4208 20.992 20.992 20.992h293.2736c11.4688 0 20.8896-9.4208 20.8896-20.992z m293.2736-345.6v356.0448c0 28.8768-23.4496 52.3264-52.3264 52.3264H805.2224V616.7552h20.992c11.5712 0 20.992-9.4208 20.992-20.992s-9.4208-20.992-20.992-20.992H197.7856c-11.5712 0-20.992 9.4208-20.992 20.992s9.4208 20.992 20.992 20.992h20.992V742.4H103.5776c-28.8768 0-52.3264-23.4496-52.3264-52.3264V333.9264c0-28.8768 23.4496-52.3264 52.3264-52.3264h816.8448c28.8768 0 52.3264 23.4496 52.4288 52.3264z m-83.8656 52.4288c0-11.5712-9.4208-20.992-20.992-20.992s-20.992 9.4208-20.992 20.992 9.4208 20.992 20.992 20.992c11.6736-0.1024 20.992-9.4208 20.992-20.992z" fill="#409EFF" p-id="4135"></path></svg>