<?xml version="1.0" standalone="no"?><!DOCTYPE svg PUBLIC "-//W3C//DTD SVG 1.1//EN" "http://www.w3.org/Graphics/SVG/1.1/DTD/svg11.dtd"><svg t="1724165392853" class="icon" viewBox="0 0 1024 1024" version="1.1" xmlns="http://www.w3.org/2000/svg" p-id="3721" xmlns:xlink="http://www.w3.org/1999/xlink" width="200" height="200"><path d="M512 941.33333333c-57.92 0-114.13333333-11.30666667-167.14666667-33.70666666-51.09333333-21.65333333-97.06666667-52.58666667-136.42666666-91.94666667-39.46666667-39.46666667-70.4-85.33333333-91.94666667-136.42666667-22.4-52.90666667-33.70666667-109.22666667-33.70666667-167.14666666s11.30666667-114.13333333 33.70666667-167.14666667c21.65333333-51.09333333 52.58666667-97.06666667 91.94666667-136.42666667 39.46666667-39.46666667 85.33333333-70.4 136.42666666-91.94666666 52.90666667-22.4 109.22666667-33.70666667 167.14666667-33.70666667s114.13333333 11.30666667 167.14666667 33.70666667c51.09333333 21.65333333 97.06666667 52.58666667 136.42666666 91.94666666s70.4 85.33333333 91.94666667 136.42666667c22.4 52.90666667 33.70666667 109.22666667 33.70666667 167.14666667s-11.30666667 114.13333333-33.70666667 167.14666666c-21.65333333 51.09333333-52.58666667 97.06666667-91.94666667 136.42666667s-85.33333333 70.4-136.42666666 91.94666667c-53.01333333 22.4-109.22666667 33.70666667-167.14666667 33.70666666z m0-784c-195.52 0-354.66666667 159.14666667-354.66666667 354.66666667S316.48 866.66666667 512 866.66666667 866.66666667 707.52 866.66666667 512 707.52 157.33333333 512 157.33333333z" fill="#5D87DA" p-id="3722"></path><path d="M582.61333333 376.64m-44.90666666 0a44.90666667 44.90666667 0 1 0 89.81333333 0 44.90666667 44.90666667 0 1 0-89.81333333 0Z" fill="#6383DA" p-id="3723"></path><path d="M475.52 487.78666667m-44.90666667 0a44.90666667 44.90666667 0 1 0 89.81333334 0 44.90666667 44.90666667 0 1 0-89.81333334 0Z" fill="#6383DA" p-id="3724"></path><path d="M575.04 613.76m-44.90666667 0a44.90666667 44.90666667 0 1 0 89.81333334 0 44.90666667 44.90666667 0 1 0-89.81333334 0Z" fill="#6383DA" p-id="3725"></path><path d="M381.65333333 383.04m-44.90666666 0a44.90666667 44.90666667 0 1 0 89.81333333 0 44.90666667 44.90666667 0 1 0-89.81333333 0Z" fill="#6383DA" p-id="3726"></path><path d="M348.90666667 584.32m-44.90666667 0a44.90666667 44.90666667 0 1 0 89.81333333 0 44.90666667 44.90666667 0 1 0-89.81333333 0Z" fill="#6383DA" p-id="3727"></path><path d="M680.4608 338.24853333l56.192-56.19093333 7.54133333 7.5424-56.19093333 56.192z" p-id="3728"></path><path d="M680.45973333 289.67146667l7.5424-7.54133334 56.19093334 56.18986667-7.5424 7.5424zM781.65973333 493.01653333l56.192-56.19093333 7.54133334 7.5424-56.19093334 56.19093333z" p-id="3729"></path><path d="M781.65866667 444.288l7.5424-7.54133333 56.192 56.18986666-7.54346667 7.5424zM742.41386667 665.632l56.19093333-56.18986667 7.54133333 7.54133334-56.18986666 56.192z" p-id="3730"></path><path d="M742.4128 616.90346667l7.5424-7.54133334 56.192 56.18986667-7.54346667 7.5424z" p-id="3731"></path></svg>