<?xml version="1.0" standalone="no"?><!DOCTYPE svg PUBLIC "-//W3C//DTD SVG 1.1//EN" "http://www.w3.org/Graphics/SVG/1.1/DTD/svg11.dtd"><svg t="1725625507856" class="icon" viewBox="0 0 1024 1024" version="1.1" xmlns="http://www.w3.org/2000/svg" p-id="4010" xmlns:xlink="http://www.w3.org/1999/xlink" width="200" height="200"><path d="M513.16666667 451.365L386.89666667 325.05A44.64 44.64 0 1 0 323.71666667 388.23L450.03166667 514.5 323.71666667 640.77a44.64 44.64 0 0 0 63.135 63.135l126.27-126.27 126.27 126.27a44.64 44.64 0 0 0 63.135-63.135L576.30166667 514.5l126.27-126.27a44.64 44.64 0 1 0-63.135-63.135L513.16666667 451.365zM513.16666667 942a427.5 427.5 0 1 1 0-855 427.5 427.5 0 0 1 0 855z" fill="#60A7EA" p-id="4011"></path></svg>