<?xml version="1.0" standalone="no"?><!DOCTYPE svg PUBLIC "-//W3C//DTD SVG 1.1//EN" "http://www.w3.org/Graphics/SVG/1.1/DTD/svg11.dtd"><svg t="1724165512399" class="icon" viewBox="0 0 1024 1024" version="1.1" xmlns="http://www.w3.org/2000/svg" p-id="3572" xmlns:xlink="http://www.w3.org/1999/xlink" width="200" height="200"><path d="M967.98750341 746.31142756v51.78153006h-289.25163141l79.53643141 79.5364314-36.60954192 36.60954314-116.14597454-116.14597454v-51.78153006h362.47071646z m-116.14597333-219.70903586l79.48464947 79.53643141 36.60954192 36.60954191v51.78153128h-362.47071524v-51.78153128h289.30341212l-79.58821212-79.5364314 36.60954192-36.60954192z" fill="#14A8F0" p-id="3573"></path><path d="M813.47141571 45.96622222l14.39526517 208.36888061h-24.95869747c-6.99050667-58.66847406-23.66416001-98.02243792-49.96917809-117.95832772-26.30501808-19.98767051-74.30649719-29.92972444-143.9526554-29.92972443h-111.12316564v648.82258132c0 58.30600416 8.44038994 98.54025364 25.37295053 120.59918578 16.82899794 22.16249481 47.63900799 33.24374282 92.32646993 33.24374283h24.95869748v33.50265006H255.93967289v-33.50265006h21.07508266c46.44803318 0 78.44901925-11.08124801 95.95117629-33.24374283 17.6057209-22.05893215 26.30501808-62.29318163 26.30501808-120.59918578V106.44705068H291.5135846c-69.23190636 0-118.32079762 10.71877689-147.26667378 32.20811138-28.89409422 21.48933571-46.24090666 60.27370192-51.93687586 116.35309986H67.29955555L82.41976297 45.96622222H813.47141571z" fill="#1296db" p-id="3574"></path></svg>