<?xml version="1.0" standalone="no"?><!DOCTYPE svg PUBLIC "-//W3C//DTD SVG 1.1//EN" "http://www.w3.org/Graphics/SVG/1.1/DTD/svg11.dtd"><svg t="1725602306851" class="icon" viewBox="0 0 1024 1024" version="1.1" xmlns="http://www.w3.org/2000/svg" p-id="3974" xmlns:xlink="http://www.w3.org/1999/xlink" width="200" height="200"><path d="M626.01578984 720.27894746a19.42105253 19.42105253 0 0 1-7.15263222-26.66842119l19.37368477-33.67894746a19.51578984 19.51578984 0 0 1 26.66842118-7.10526269l20.93684151 12.0315788 39.26842119-22.68947373v-23.4c0-10.75263135 8.76315761-19.56315761 19.51578985-19.56315762h38.84210507c10.75263135 0 19.51578984 8.81052627 19.51578897 19.56315762v24.25263134l39.12631611 22.64210508 17.76315761-10.27894745 0.28421104-0.52105255a53.52631612 53.52631612 0 0 0-19.51578984-72.9l-57.45789492-33.15789404V428.11052627l57.31578984-33.06315762c25.34210508-14.73157881 34.10526357-47.36842119 19.42105254-72.80526357l-52.95789492-91.75263135c-14.68421016-25.38947373-47.36842119-34.2-72.75789405-19.42105254l-55.75263222 32.21052627-106.76842119-61.72105254V115.33684239C571.68421016 85.96842119 547.76315761 62 518.39473643 62H412.43157881c-29.36842119 0-53.28947373 23.92105254-53.28947373 53.33684238v63.94736778L251.94736865 241.14736865l-57.12631612-33.01578984a53.28947373 53.28947373 0 0 0-72.75789492 19.46842119L69.10526357 319.54210508a53.05263135 53.05263135 0 0 0-5.21052714 40.45263135c3.64736865 13.73684239 12.45789492 25.24736865 24.77368476 32.35263222l55.27894746 31.97368388v127.84736866l-55.04210508 31.73684238c-12.31578984 7.10526357-21.07894746 18.66315761-24.77368476 32.44736778-3.74210508 13.73684239-1.84736865 28.13684239 5.21052627 40.35789492l53.00526357 91.75263134a52.72105254 52.72105254 0 0 0 46.32631523 26.62105255c9.18947373 0 18.33157881-2.41578984 26.52631612-7.15263135l56.74736865-32.73157881 106.67368388 61.57894746v64.51578897c0 29.36842119 23.96842119 53.33684238 53.33684239 53.33684238h105.91578896c29.36842119 0 53.28947373-23.92105254 53.28947373-53.33684238V795.26315762l75.07894747-43.38947374v-19.89473642l-20.22631524-11.65263134z m-161.47894745-98.71578985A133.38947373 133.38947373 0 0 1 331.33684238 488.31578984a133.38947373 133.38947373 0 0 1 133.2-133.24736865A133.38947373 133.38947373 0 0 1 597.78421016 488.31578984a133.38947373 133.38947373 0 0 1-133.24736778 133.24736778z" fill="#3396FB" p-id="3975"></path><path d="M947.93157881 795.68947373l-30.45789493-16.57894746v-60.34736866l30.31578985-16.57894745a25.86315761 25.86315761 0 0 0 10.32631611-36.37894659l-28.04210596-45.85263222a29.13157881 29.13157881 0 0 0-38.51052627-9.75789492l-3.88421015 2.13157969-25.62631611 13.97368388-56.55789492-30.83684239v-33.15789404c0-14.68421016-12.64736865-26.62105253-28.18421016-26.62105341h-56.08421015c-15.58421016 0-28.23157881 11.98421016-28.23157969 26.66842119v31.92631611l-56.74736778 30.97894746-30.22105253-16.48421104a29.13157881 29.13157881 0 0 0-38.55789493 9.71052628l-28.04210507 45.94736865a25.24736865 25.24736865 0 0 0-2.74736866 20.22631611c1.94210508 6.86842119 6.63157881 12.6 13.12105254 16.2l29.27368388 15.96315761v63.94736866l-29.1315788 15.86842119a26.66842119 26.66842119 0 0 0-13.12105255 16.2 25.2 25.2 0 0 0 2.74736866 20.22631523l28.04210508 45.85263223c3.74210508 6.15789492 9.85263135 10.56315761 17.14736865 12.41052628a29.36842119 29.36842119 0 0 0 21.45789492-2.65263224l30.03157881-16.38947372 56.46315762 30.78947372v32.25789493c0 14.68421016 12.69473643 26.66842119 28.23157881 26.66842119h56.08421104c15.53684238 0 28.23157881-11.98421016 28.2315788-26.66842119v-33.01578897l56.55789492-30.88421103 29.84210508 16.29473731a29.17894746 29.17894746 0 0 0 21.41052627 2.65263134 27.94736865 27.94736865 0 0 0 17.14736865-12.41052627l28.04210508-45.85263135a25.95789492 25.95789492 0 0 0-10.32631611-36.47368476zM748.84210508 819.89473643a71.05263135 71.05263135 0 0 1-71.05263135-71.05263135c0-2.7 0.47368388-5.25789492 0.8052627-7.91052627A70.81578984 70.81578984 0 0 1 819.89473643 748.84210508a71.05263135 71.05263135 0 0 1-71.05263135 71.05263135z" fill="#BBE2FF" p-id="3976"></path><path d="M862.05263135 626.3l-56.55789492-30.83684238v-33.15789405c0-14.68421016-12.64736865-26.62105253-28.18421016-26.62105341h-56.08421015c-15.58421016 0-28.23157881 11.98421016-28.23157969 26.66842119v31.92631611l-56.74736778 30.97894746-30.22105253-16.48421104a29.13157881 29.13157881 0 0 0-38.55789493 9.71052628l-28.04210507 45.94736865a25.24736865 25.24736865 0 0 0-2.74736866 20.22631611c1.94210508 6.86842119 6.63157881 12.6 13.12105254 16.2l29.27368388 15.96315761v63.94736866l-29.1315788 15.86842119a26.66842119 26.66842119 0 0 0-13.12105255 16.2 25.2 25.2 0 0 0 2.74736866 20.22631523l28.04210508 45.85263223c1.89473643 3.03157881 3.31578984-84.17368388 110.17894746-178.10526357 24.91578984-21.83684238 86.35263135-46.70526357 184.26315762-74.51052627z" fill="#65AFE7" p-id="3977"></path><path d="M446.86842119 494.23684238m-143.28947372 1e-8a143.28947373 143.28947373 0 1 0 286.57894745 0 143.28947373 143.28947373 0 1 0-286.57894745 0Z" fill="#FFB541" p-id="3978"></path></svg>