<?xml version="1.0" standalone="no"?><!DOCTYPE svg PUBLIC "-//W3C//DTD SVG 1.1//EN" "http://www.w3.org/Graphics/SVG/1.1/DTD/svg11.dtd"><svg t="1727663168217" class="icon" viewBox="0 0 1024 1024" version="1.1" xmlns="http://www.w3.org/2000/svg" p-id="4167" xmlns:xlink="http://www.w3.org/1999/xlink" width="200" height="200"><path d="M962 512c-0.45 31.635-0.7875 61.605-2.79 92.025-1.98 30.3075-5.625 61.0425-12.6225 91.5075-13.4325 60.975-41.8725 120.24-86.6025 164.43-44.2125 44.73-103.5 73.1925-164.4525 86.67-30.465 6.9525-61.2 10.5975-91.5075 12.5775-30.42 2.0025-60.39 2.34-92.025 2.79-31.635-0.45-61.605-0.7875-92.025-2.79-30.3075-1.98-61.0425-5.625-91.5075-12.6225-60.975-13.4325-120.24-41.8725-164.43-86.6025-44.73-44.2125-73.1925-103.5-86.67-164.4525-6.9525-30.465-10.5975-61.2-12.5775-91.5075C62.7875 573.605 62.45 543.635 62 512c0.45-31.635 0.7875-61.605 2.79-92.025 1.98-30.3075 5.625-61.0425 12.6225-91.5075 13.4325-60.975 41.8725-120.24 86.6025-164.43 44.2125-44.73 103.5-73.1925 164.4525-86.67 30.465-6.9525 61.2-10.5975 91.5075-12.5775C450.395 62.7875 480.365 62.45 512 62c31.635 0.45 61.605 0.7875 92.025 2.79 30.3075 1.98 61.0425 5.625 91.5075 12.6225 60.975 13.4325 120.24 41.8725 164.43 86.6025 44.73 44.2125 73.1925 103.5 86.67 164.4525 6.9525 30.465 10.5975 61.2 12.5775 91.5075 2.0025 30.42 2.34 60.39 2.79 92.025z" fill="#7ACEFA" p-id="4168"></path><path d="M646.955 571.67s-13.1625-169.29-224.0775-167.85V320.075L282.275 446.3l140.6025 126.2475v-83.205c0 0.0225 133.2675-21.9375 224.0775 82.3275z" fill="#FFFFFF" p-id="4169"></path><path d="M694.745 375.9875v281.16l46.98-0.0225V376.235l-34.5825-0.27h34.425v-46.7775h-196.8075v46.8h149.985z" fill="#4F92B9" p-id="4170"></path><path d="M366.8525 657.215v-84.4425h-46.845V703.925l46.845-0.0675v0.0675h374.7825v-46.71H366.8525z" fill="#4F92B9" p-id="4171"></path></svg>