<?xml version="1.0" standalone="no"?><!DOCTYPE svg PUBLIC "-//W3C//DTD SVG 1.1//EN" "http://www.w3.org/Graphics/SVG/1.1/DTD/svg11.dtd"><svg t="1724045559978" class="icon" viewBox="0 0 1024 1024" version="1.1" xmlns="http://www.w3.org/2000/svg" p-id="3343" xmlns:xlink="http://www.w3.org/1999/xlink" width="200" height="200"><path d="M512.7993793 512.40807441m-447.20496914 0a447.20496914 447.20496914 0 1 0 894.4099374 0 447.20496914 447.20496914 0 1 0-894.4099374 0Z" fill="#F8E71C" p-id="3344"></path><path d="M512.7993793 512.40807441m-312.40062159 0a312.4006207 312.4006207 0 1 0 624.80124229 0 312.4006207 312.4006207 0 1 0-624.80124229 0Z" fill="#FE3D50" p-id="3345"></path><path d="M830.19751543 734.43975136H195.40124229c-21.3372668 0-37.55403721-19.17950273-33.99875772-40.22049638l63.06708076-373.55031123a34.47950273 34.47950273 0 0 1 33.99875772-28.73850908h508.66211162a34.47950273 34.47950273 0 0 1 33.99875771 28.73850908l63.06708077 373.55031123c3.5552795 21.04099365-12.66149092 40.22049727-33.99875773 40.22049638z" fill="#FFFFFF" p-id="3346"></path><path d="M317.60558984 684.29689472h81.05590108v49.88012432h-81.05590108z" fill="#51E4C2" p-id="3347"></path><path d="M863.08944102 687.65093193l-61.96024863-366.98198818a34.47950273 34.47950273 0 0 0-33.99875772-28.73850908H258.46832305a34.47950273 34.47950273 0 0 0-33.99875772 28.73850908L162.5093167 687.65093193c-0.0279501 18.57577675 14.99813701 34.32298096 34.28385117 34.32298096h632.01242197c19.28571416 0 34.31180127-15.74720508 34.28385118-34.32298096z" fill="#FE3D50" p-id="3348"></path><path d="M857.6559002 655.47453448l-56.52670781-334.80559073a34.47950273 34.47950273 0 0 0-33.99875772-28.73850908H258.46832305a34.47950273 34.47950273 0 0 0-33.99875772 28.73850908l-56.52670781 334.80559073c2.39254629 16.04347822 16.19441016 28.82236026 33.43975136 28.82236024h622.8279501c17.24534121 0 31.05279492-12.78447187 33.44534121-28.82236024z" fill="#FFFFFF" p-id="3349"></path><path d="M355.33850908 291.93043467l-37.73291924 392.36646005h81.05590108l22.36024863-392.36646005z" fill="#51E4C2" p-id="3350"></path><path d="M194.21055898 499.88074502h637.17763975l11.01242197 65.25279492H182.66708076z" fill="#51E4C2" p-id="3351"></path><path d="M742.86397549 253.16335391c0 62.7372668-94.02484482 166.08074502-126.43043555 202.34347822a14.49503086 14.49503086 0 0 1-21.65031035 0c-32.40558984-36.2627332-126.42484482-139.60621143-126.42484482-202.34347822 0-75.80124229 61.45155263-137.25279492 137.25279492-137.25279493s137.25279492 61.45155263 137.2527958 137.25279493z" fill="#2283F6" p-id="3352"></path><path d="M605.61117969 266.38944102m-66.20310528 0a66.20310528 66.20310528 0 1 0 132.40621143 0 66.20310528 66.20310528 0 1 0-132.40621143 0Z" fill="#252528" p-id="3353"></path><path d="M605.61117969 255.2093167m-66.20310528 0a66.20310528 66.20310528 0 1 0 132.40621143 0 66.20310528 66.20310528 0 1 0-132.40621143 0Z" fill="#51E4C2" p-id="3354"></path><path d="M539.40807441 460.35900635a66.20310528 20.5993793 0 1 0 132.40621143 0 66.20310528 20.5993793 0 1 0-132.40621142 0Z" fill="#2283F6" p-id="3355"></path><path d="M605.61117969 266.38944102m-50.64037207 0a50.64037295 50.64037295 0 1 0 101.28074501 0 50.64037295 50.64037295 0 1 0-101.28074501 0Z" fill="#FFFFFF" p-id="3356"></path><path d="M605.61117969 255.2093167m-50.64037207 0a50.64037295 50.64037295 0 1 0 101.28074501 0 50.64037295 50.64037295 0 1 0-101.28074501 0Z" fill="#FFFFFF" p-id="3357"></path></svg>