<?xml version="1.0" standalone="no"?><!DOCTYPE svg PUBLIC "-//W3C//DTD SVG 1.1//EN" "http://www.w3.org/Graphics/SVG/1.1/DTD/svg11.dtd"><svg t="1726468187043" class="icon" viewBox="0 0 1024 1024" version="1.1" xmlns="http://www.w3.org/2000/svg" p-id="3964" xmlns:xlink="http://www.w3.org/1999/xlink" width="200" height="200"><path d="M363.73333344 320.53333344H131.19999969c-2.13333375 0-3.19999969-1.60000031-3.19999969-3.19999969s1.60000031-3.19999969 3.19999969-3.20000063h233.06666718c2.13333375 0 3.19999969 1.60000031 3.19999969 3.20000063s-1.60000031 3.19999969-3.73333312 3.19999969zM392 451.20000031H197.33333375c-2.13333375 0-3.19999969-1.60000031-3.20000063-3.20000062 0-2.13333375 1.60000031-3.19999969 3.20000063-3.19999969h194.66666625c2.13333375 0 3.19999969 1.60000031 3.19999969 3.19999969 0.53333344 1.60000031-1.06666687 3.19999969-3.19999969 3.20000062zM327.46666625 385.06666625H227.19999969c-2.13333375 0-3.19999969-1.60000031-3.19999969-3.19999969 0-2.13333375 1.60000031-3.19999969 3.19999969-3.19999969h100.26666656c2.13333375 0 3.19999969 1.60000031 3.20000062 3.19999969s-1.60000031 3.19999969-3.20000062 3.19999969z" fill="#B5DEFF" p-id="3965"></path><path d="M811.20000031 441.60000031s24 4.8 34.66666594 0c6.93333375-3.19999969 10.13333344-11.73333375 6.93333375-19.2-3.19999969-7.46666625-11.20000031-10.66666687-18.13333313-7.46666718-10.66666687 4.8-23.46666656 26.66666625-23.46666656 26.66666718z" fill="#FFFFFF" p-id="3966"></path><path d="M831.46666625 446.93333375c-10.13333344 0-20.26666688-2.13333375-20.79999937-2.13333375l-4.80000001-1.06666687 2.13333282-4.26666657c0.53333344-1.06666687 13.33333313-22.93333313 25.06666687-28.26666656 4.26666656-2.13333375 8.53333312-2.13333375 12.79999969-0.53333344 4.26666656 1.60000031 7.99999969 5.33333344 9.6 9.6 3.73333313 9.06666656 0 19.73333344-8.53333312 23.46666657-3.73333313 2.66666625-9.6 3.19999969-15.46666688 3.20000062z m-14.9333325-8.00000063c7.99999969 1.06666687 21.33333375 2.13333375 27.73333313-0.53333343 5.33333344-2.66666625 7.46666625-9.06666656 5.33333343-14.93333344-1.06666687-2.66666625-3.19999969-4.8-5.86666687-5.86666594-2.66666625-1.06666687-5.33333344-1.06666687-7.46666719 0-6.40000031 3.19999969-14.93333344 14.4-19.7333325 21.33333281z" fill="#B5C8EA" p-id="3967"></path><path d="M819.73333344 493.86666687s26.13333375 3.73333313 38.4 36.79999969c5.33333344 14.93333344 33.06666656 9.06666656 37.33333312-4.8 4.26666656-12.79999969 0-27.73333313-17.59999969-38.4-22.39999969-13.33333313-58.13333344 6.40000031-58.13333343 6.40000031z" fill="#FFFFFF" p-id="3968"></path><path d="M873.06666688 542.93333375c-8.53333312 0-15.46666687-4.26666656-18.13333313-11.20000031-11.20000031-30.93333375-34.66666688-34.66666688-35.73333375-34.66666688l-10.13333344-1.60000031 9.06666656-4.8c1.60000031-1.06666687 37.86666656-20.80000031 61.33333313-5.86666594 17.06666625 10.66666687 24 26.13333375 19.2 42.13333313-3.19999969 10.13333344-14.93333344 15.46666687-25.06666594 15.46666687 0 0.53333344-0.53333344 0.53333344-0.53333344 0.53333344z m-44.26666688-50.13333375c9.6 3.73333313 24 13.86666656 32.53333312 36.26666625 2.13333375 6.40000031 9.06666656 6.40000031 12.26666719 6.40000031 8.53333312 0 16.53333375-5.33333344 18.66666656-11.20000031 4.26666656-13.33333313-1.60000031-25.60000031-16.00000031-34.1333325-14.93333344-8.53333312-36.26666625-1.60000031-47.46666656 2.66666625z" fill="#B5C8EA" p-id="3969"></path><path d="M403.73333375 228.8s-14.93333344 2.13333375-21.86666719 20.80000031c-3.19999969 8.53333312-18.66666656 5.33333344-20.80000031-2.66666719-2.13333375-7.46666625 0-15.46666687 10.13333344-21.33333281 12.26666625-7.46666625 32.53333312 3.19999969 32.53333406 3.19999969z" fill="#FFFFFF" p-id="3970"></path><path d="M373.86666688 258.13333344c-0.53333344 0-0.53333344 0 0 0-6.40000031 0-13.86666656-3.73333313-16.00000032-10.13333344-3.19999969-9.6 1.06666687-19.2 11.20000032-25.60000031 13.86666656-8.53333312 35.20000031 2.66666625 36.26666625 3.20000062l9.06666656 4.8-10.13333344 1.59999938c-0.53333344 0-12.79999969 2.13333375-19.2 18.66666656-1.60000031 4.8-5.86666687 7.46666625-11.19999937 7.46666719z m7.99999968-31.99999969c-3.19999969 0-6.40000031 0.53333344-9.06666656 2.13333281-7.46666625 4.8-10.66666687 10.66666687-8.53333312 17.59999969 1.06666687 2.66666625 4.8 4.8 9.06666656 5.33333344 1.60000031 0 4.26666656 0 5.33333344-2.66666625 4.26666656-10.66666687 10.66666687-16.53333375 15.99999937-19.73333344-3.73333313-1.06666687-8.53333312-2.66666625-12.79999969-2.66666625z" fill="#B5C8EA" p-id="3971"></path><path d="M423.46666625 161.6s-7.99999969-1.06666687-14.9333325 7.46666625c-3.19999969 3.73333313-10.66666687-0.53333344-10.66666688-4.8s2.66666625-7.99999969 8.53333313-9.6c7.99999969-2.13333375 17.06666625 6.93333375 17.06666625 6.93333375z" fill="#FFFFFF" p-id="3972"></path><path d="M405.33333312 174.39999969c-1.06666687 0-2.13333375 0-3.19999968-0.53333344-3.73333313-1.06666687-7.46666625-4.8-7.46666719-9.06666656 0-6.40000031 4.26666656-11.20000031 11.20000031-12.79999969 9.6-2.66666625 18.66666656 6.93333375 19.73333344 7.99999969l6.93333375 7.46666718-9.6-2.13333375c-0.53333344 0-6.40000031-0.53333344-11.73333375 5.86666688-1.06666687 2.13333375-3.19999969 3.19999969-5.86666688 3.19999969z m3.73333313-16.53333282h-1.59999938c-2.66666625 0.53333344-6.40000031 2.66666625-6.40000031 6.39999938 0 0.53333344 1.06666687 2.13333375 2.66666719 2.66666719 0 0 1.06666687 0.53333344 1.59999937 0 3.19999969-3.73333313 6.40000031-6.40000031 9.06666657-7.46666719-1.06666687-0.53333344-3.19999969-1.60000031-5.33333344-1.59999938z" fill="#B5C8EA" p-id="3973"></path><path d="M464 500.26666625s-60.79999969-8.53333312-109.33333312 24.53333344c-26.66666625 18.13333313-9.06666656 0-44.80000032 11.73333375-28.8 9.06666656-9.6 71.46666656 21.86666719 54.40000031 22.39999969-12.26666625 17.59999969-12.26666625 21.33333281-24 3.73333313-11.73333375 86.93333344-3.73333313 105.06666657-17.60000062 18.66666656-13.33333313 5.86666687-49.06666688 5.86666687-49.06666688z" fill="#FFE2C2" p-id="3974"></path><path d="M321.06666687 597.33333312c-4.8 0-9.06666656-1.60000031-13.33333312-4.26666656-10.66666687-7.46666625-17.06666625-24.53333344-14.93333344-38.93333344 1.60000031-10.13333344 7.46666625-17.59999969 15.99999938-20.26666687 17.59999969-5.86666687 23.46666656-4.26666656 27.20000062-3.19999969 2.66666625 0.53333344 4.26666656 1.06666687 17.06666625-7.46666625 49.60000031-33.6 109.33333312-25.60000031 112.00000031-25.06666687 1.06666687 0 2.13333375 1.06666687 2.66666625 2.13333281 0.53333344 1.60000031 13.33333313 37.86666656-6.93333281 52.8-10.13333344 7.46666625-36.26666625 9.06666656-61.33333406 10.13333344-16.00000031 1.06666687-40.53333375 2.13333375-42.66666656 5.86666687-0.53333344 2.13333375-1.06666687 4.26666656-1.59999938 5.33333344-1.60000031 7.99999969-3.73333313 10.66666687-21.33333375 20.26666687-4.8 1.60000031-9.06666656 2.66666625-12.79999969 2.66666625z m8.53333313-61.33333312c-3.19999969 0-9.06666656 1.06666687-18.66666656 3.73333312-7.99999969 2.66666625-10.66666687 9.6-11.20000032 14.93333344-2.13333375 12.26666625 3.73333313 26.13333375 12.26666719 32.53333313 5.33333344 3.73333313 11.73333375 4.26666656 18.13333313 0.53333343 16.53333375-9.06666656 17.06666625-10.13333344 18.13333312-15.46666687 0.53333344-1.60000031 1.06666687-3.73333313 1.60000031-6.39999938 2.66666625-7.46666625 18.66666656-8.53333312 48.53333344-10.13333343 22.93333313-1.06666687 49.06666688-2.66666625 57.6-9.06666657 13.86666656-10.13333344 7.46666625-35.73333375 5.33333344-43.2-10.66666687-1.06666687-62.93333344-4.26666656-105.0666675 24.53333344-13.86666656 9.6-17.06666625 10.13333344-22.39999969 8.53333313-1.06666687-0.53333344-2.13333375-0.53333344-4.26666656-0.53333344z" fill="#804F21" p-id="3975"></path><path d="M432.53333375 563.73333313s7.46666625-59.73333375 29.3333325-64.53333282S539.73333313 512 539.73333313 512s-5.33333344 54.93333375-38.93333344 60.79999969c-34.13333344 5.33333344-58.13333344 0-68.26666594-9.06666656z" fill="#75BEEA" p-id="3976"></path><path d="M474.13333344 578.13333312c-19.2 0-35.20000031-4.26666656-44.26666688-11.73333281-1.06666687-0.53333344-1.06666687-2.13333375-1.06666687-3.20000062 1.06666687-6.40000031 8.53333312-62.4 31.46666718-67.2 21.86666625-4.8 77.86666687 11.73333375 79.99999969 12.26666718 1.60000031 0.53333344 2.66666625 2.13333375 2.66666719 3.73333313 0 2.13333375-6.40000031 57.6-42.13333406 63.46666687-9.06666656 1.60000031-18.13333313 2.66666625-26.66666625 2.66666625z m-38.4-15.99999937c9.6 6.93333375 30.93333375 12.26666625 64.00000031 6.93333281 26.66666625-4.26666656 34.13333344-43.73333344 35.73333281-54.93333281-11.73333375-3.19999969-55.99999969-15.46666687-74.13333281-11.73333375-14.4 3.19999969-22.93333313 42.66666656-25.60000031 59.73333375z" fill="#804F21" p-id="3977"></path><path d="M341.86666625 704c-44.80000031 4.8-57.6 2.66666625-100.26666656-21.33333375-5.86666687-3.73333313-16.00000031-4.8-20.79999938 2.66666719-18.13333313 30.93333375-13.86666656 72-7.46666719 94.93333312 5.33333344 15.46666687 23.46666656 12.26666625 27.20000063-5.86666687 6.93333375-33.06666656 6.40000031-39.46666688 6.39999937-39.46666594s-12.26666625-6.40000031 6.93333375 3.73333312c18.66666656 9.6 72.53333344 41.06666625 89.06666626 41.06666625 19.2 0 31.99999969-12.79999969 42.66666656-26.13333281 14.93333344-17.59999969 1.06666687-54.40000031-43.73333344-49.60000031z" fill="#FFE2C2" p-id="3978"></path><path d="M226.13333375 793.59999969c-6.93333375 0-12.26666625-4.8-14.93333344-12.26666625-7.99999969-27.73333313-10.13333344-67.2 7.46666625-97.60000031 2.13333375-3.73333313 5.33333344-5.86666687 9.6-6.93333282 5.33333344-1.06666687 11.20000031 0 16.00000032 3.19999969 42.66666656 24 54.40000031 25.06666687 98.13333281 20.80000031l0.53333343 3.19999969-0.53333343-3.19999969c22.39999969-2.13333375 41.06666625 5.33333344 49.06666687 20.79999938 6.40000031 11.73333375 5.33333344 25.06666687-2.13333281 34.13333344-11.20000031 13.86666656-25.06666687 27.19999969-45.33333375 27.20000062-13.33333313 0-43.73333344-16.00000031-76.26666656-33.6-5.86666687-3.19999969-11.20000031-5.86666687-14.93333344-8.00000062-1.06666687-0.53333344-1.60000031-1.06666687-2.13333375-1.06666688-0.53333344 5.33333344-2.13333375 16.00000031-5.86666594 34.66666688-2.66666625 12.26666625-10.66666687 18.13333313-17.60000062 18.66666656h-1.06666594z m5.86666594-110.4c-1.06666687 0-1.60000031 0-2.66666625 0.53333344-2.13333375 0.53333344-4.26666656 1.60000031-5.33333344 3.73333312-16.53333375 28.26666656-13.86666656 67.2-6.93333375 92.26666688 1.60000031 4.8 5.33333344 7.99999969 9.0666675 7.46666718 4.26666656-0.53333344 9.6-4.26666656 11.19999938-13.33333406 4.8-23.46666656 5.86666687-33.06666656 5.86666687-36.79999969-1.60000031-0.53333344-2.13333375-1.06666687-2.13333375-1.06666687-2.13333375-1.06666687-2.66666625-2.66666625-1.59999937-4.26666656 1.06666687-1.60000031 1.06666687-2.66666625 4.26666656-1.06666688l3.73333312 2.13333375h0.53333344c1.60000031 1.06666687 3.73333313 2.13333375 6.40000031 3.19999969 3.73333313 2.13333375 9.06666656 4.8 14.93333344 8.00000062 22.39999969 12.26666625 60.26666625 32.53333312 73.06666594 32.53333313 16.53333375 0 28.26666656-10.13333344 40.00000031-24.53333344 5.86666687-6.93333375 6.40000031-17.59999969 1.60000031-26.66666625-3.19999969-6.40000031-14.4-20.26666688-42.66666656-17.06666719-44.26666688 4.8-58.13333344 3.19999969-101.86666687-21.86666625-1.60000031-2.13333375-4.26666656-3.19999969-7.46666719-3.20000062z" fill="#804F21" p-id="3979"></path><path d="M300.26666656 705.60000031c-17.59999969-1.60000031-32.53333312-7.99999969-58.13333344-22.93333406-5.86666687-3.73333313-16.00000031-4.8-20.79999937 2.66666719-18.13333313 30.93333375-13.86666656 72-7.46666719 94.93333312 5.33333344 15.46666687 23.46666656 12.26666625 27.19999969-5.86666687 6.93333375-33.06666656 6.40000031-39.46666688 6.40000031-39.46666594s-12.26666625-6.40000031 6.93333375 3.73333312c8.53333312 4.26666656 41.59999969 21.86666625 41.59999969 21.86666625s15.46666687-53.86666687 4.26666656-54.93333281z" fill="#FFFFFF" p-id="3980"></path><path d="M226.13333375 793.59999969c-6.93333375 0-12.26666625-4.8-14.93333344-12.26666625-7.99999969-27.73333313-10.13333344-67.2 7.46666625-97.60000031 2.13333375-3.73333313 5.33333344-5.86666687 9.6-6.93333282 5.33333344-1.06666687 11.20000031 0 16.00000032 3.19999969 26.66666625 14.93333344 40.53333375 20.26666688 56.53333312 21.86666625 2.13333375 0 3.73333313 1.06666687 4.8 3.20000063 6.93333375 10.13333344-4.26666656 48.53333344-6.40000031 55.99999968-0.53333344 1.06666687-1.06666687 1.60000031-2.13333282 2.13333375-1.06666687 0.53333344-2.13333375 0.53333344-2.66666718 0-0.53333344 0-32.53333312-17.59999969-41.06666625-21.86666718-1.06666687-0.53333344-1.60000031-1.06666687-2.13333375-1.06666688-0.53333344 5.33333344-2.13333375 16.00000031-5.86666594 34.66666688-2.66666625 12.26666625-10.66666687 18.13333313-17.60000063 18.66666656h-1.59999937z m5.86666594-110.4c-1.06666687 0-1.60000031 0-2.66666625 0.53333344-2.13333375 0.53333344-4.26666656 1.60000031-5.33333344 3.73333312-16.53333375 28.26666656-13.86666656 67.2-6.93333375 92.26666688 1.60000031 4.8 5.33333344 7.99999969 9.0666675 7.46666718 4.26666656-0.53333344 9.6-4.26666656 11.19999938-13.33333406 4.8-23.46666656 5.86666687-33.06666656 5.86666687-36.79999969-1.60000031-0.53333344-2.13333375-1.06666687-2.13333375-1.06666687-2.13333375-1.06666687-2.66666625-2.66666625-1.59999937-4.26666656 1.06666687-1.60000031 1.06666687-2.66666625 4.26666656-1.06666688l3.73333312 2.13333375h0.53333344c1.60000031 1.06666687 3.73333313 2.13333375 6.40000031 3.19999969 6.93333375 3.73333313 28.8 15.46666687 37.86666657 20.26666687 6.40000031-22.93333313 9.06666656-44.26666688 6.39999937-46.93333312-19.2-2.13333375-35.20000031-9.06666656-59.19999938-22.93333313-1.60000031-2.13333375-4.26666656-3.19999969-7.46666718-3.20000062z m67.73333344 25.60000031z m0 0z" fill="#804F21" p-id="3981"></path><path d="M246.39999969 685.33333344c-1.60000031-1.06666687-2.66666625-2.13333375-4.26666657-2.66666719-14.4-4.26666656-22.39999969-3.19999969-26.13333281 5.33333344-14.4 31.99999969-8.53333312 69.86666625-2.13333375 92.26666687 5.33333344 15.46666687 23.46666656 12.26666625 27.19999969-5.86666687 6.93333375-33.06666656 6.40000031-39.46666688 6.40000031-39.46666594 1.06666687 0.53333344-11.20000031-26.66666625-1.06666687-49.60000031z" fill="#A4B3E0" p-id="3982"></path><path d="M226.13333375 793.59999969c-6.93333375 0-12.26666625-4.8-14.93333344-12.26666625-4.8-16.53333375-13.86666656-58.66666688 2.13333282-94.93333313 5.33333344-12.26666625 18.13333313-10.13333344 29.86666687-6.93333375 1.60000031 0.53333344 3.19999969 1.60000031 4.26666656 2.13333375 0.53333344 0 0.53333344 0.53333344 1.06666688 0.53333344 1.60000031 1.06666687 2.13333375 2.66666625 1.60000031 4.26666656-7.46666625 17.59999969-1.60000031 37.86666656 0.5333325 44.79999938 0.53333344 1.60000031 1.06666687 3.19999969 0.53333344 4.26666656 0 2.66666625-0.53333344 12.26666625-6.39999938 39.46666688-2.66666625 12.26666625-10.66666687 18.13333313-17.60000062 18.66666656h-1.06666594z m2.13333281-109.86666656c-5.86666687 0-7.99999969 2.66666625-9.06666656 5.33333343-14.93333344 34.13333344-6.40000031 74.13333375-1.60000031 90.13333313 1.60000031 4.8 5.33333344 7.99999969 9.06666656 7.46666719 4.26666656-0.53333344 9.6-4.26666656 11.20000031-13.33333313 6.40000031-31.46666625 5.86666687-38.4 5.86666688-38.4v-0.53333344c0-0.53333344 0-1.06666687-0.53333344-1.60000031-2.13333375-6.93333375-7.99999969-27.73333313-1.60000031-46.93333312-0.53333344 0-1.06666687-0.53333344-1.59999938-0.53333344-4.8-0.53333344-8.53333312-1.60000031-11.73333375-1.60000031z" fill="#2accb4" p-id="3983"></path><path d="M584.53333344 738.13333344s35.20000031 20.80000031 36.26666625 51.19999968c1.06666687 30.40000031-50.13333375 65.59999969-68.79999938 83.20000032-6.40000031 6.40000031-15.46666687 9.06666656-18.13333406 14.93333344-5.33333344 14.4 9.06666656 24.53333344 15.46666687 39.46666687 10.13333344 24.53333344-10.13333344 22.39999969-25.06666687 11.19999938-9.6-7.46666625-39.46666688-32.53333312-45.86666625-51.19999969-3.19999969-10.13333344 6.93333375-14.4 14.4-21.86666719 20.26666688-20.26666688 53.86666687-43.2 40.00000031-58.1333325-7.46666625-8.53333312-19.2-19.2-19.2-19.2l70.93333313-49.60000031z" fill="#FFE2C2" p-id="3984"></path><path d="M543.99999969 949.33333344c-6.93333375 0-14.93333344-3.73333313-21.33333281-8.53333313-0.53333344-0.53333344-39.46666688-29.86666687-46.93333313-52.8-3.19999969-9.6 3.19999969-14.93333344 9.6-20.26666687 2.13333375-1.60000031 3.73333313-3.19999969 5.86666594-5.33333344 4.26666656-4.26666656 9.6-9.06666656 14.4-13.33333313 12.79999969-11.73333375 27.73333313-25.06666687 27.73333406-34.13333343 0-2.13333375-0.53333344-4.26666656-2.13333375-5.86666688-7.46666625-7.99999969-19.2-19.2-19.2-19.2-0.53333344-0.53333344-1.06666687-1.60000031-1.06666687-2.66666625s0.53333344-2.13333375 1.60000031-2.66666719l70.39999968-49.06666687c1.06666687-0.53333344 2.66666625-1.06666687 3.73333313 0 1.60000031 1.06666687 36.79999969 21.86666625 37.8666675 53.86666687 1.06666687 26.13333375-31.99999969 53.86666687-56.00000062 73.60000032-5.33333344 4.8-10.13333344 8.53333312-13.86666657 12.26666625-2.66666625 2.66666625-6.40000031 4.8-9.06666656 6.40000031-3.73333313 2.66666625-6.93333375 4.26666656-7.99999969 6.93333375-3.19999969 7.99999969 1.60000031 14.4 6.93333282 22.39999969 3.19999969 4.26666656 6.40000031 9.06666656 8.53333312 14.4 5.33333344 12.79999969 2.66666625 18.66666656-1.06666594 21.33333281-2.13333375 1.60000031-5.33333344 2.66666625-8.00000062 2.66666719z m-24.53333344-162.13333313c4.26666656 3.73333313 11.20000031 10.66666687 16.53333375 16.53333282 2.66666625 3.19999969 4.26666656 6.93333375 4.26666656 10.66666687-0.53333344 12.26666625-14.93333344 25.06666687-29.86666687 38.93333344-4.8 4.26666656-10.13333344 9.06666656-14.4 13.33333312-2.13333375 2.13333375-4.26666656 3.73333313-6.39999938 5.33333344-6.40000031 5.33333344-9.06666656 7.99999969-7.46666719 13.33333312 5.86666687 17.59999969 34.13333344 41.59999969 44.26666688 49.60000032 9.06666656 6.93333375 18.13333313 8.53333312 20.80000031 6.40000031 2.13333375-1.60000031 1.60000031-6.93333375-1.06666687-13.8666675-2.13333375-4.8-4.8-9.06666656-7.99999969-13.33333313-5.86666687-8.53333312-11.73333375-17.59999969-7.46666719-28.8 1.60000031-4.26666656 5.86666687-7.46666625 10.66666688-10.13333343 2.66666625-1.60000031 5.86666687-3.73333313 7.99999968-5.86666594 3.73333313-3.73333313 8.53333312-7.46666625 14.4-12.26666719 21.86666625-18.13333313 54.40000031-45.33333375 53.33333344-68.26666687-1.06666687-24.53333344-25.60000031-42.66666656-32.53333312-47.46666656l-65.06666719 45.86666718z" fill="#804F21" p-id="3985"></path><path d="M574.93333344 852.8c-9.06666656 7.46666625-17.06666625 14.4-22.93333313 19.2-6.40000031 6.40000031-15.46666687 9.06666656-18.13333406 14.93333344-5.33333344 14.4 9.06666656 24.53333344 15.46666688 39.46666687 10.13333344 24.53333344-10.13333344 22.39999969-25.06666688 11.19999938-9.6-7.46666625-39.46666688-32.53333312-45.86666625-51.19999969-3.19999969-10.13333344 6.93333375-14.4 14.4-21.86666625 11.20000031-11.20000031 26.66666625-24 35.73333375-35.20000031 10.66666687-2.13333375 42.66666656 10.66666687 46.39999969 23.46666656z" fill="#FFFFFF" p-id="3986"></path><path d="M543.99999969 949.33333344c-6.93333375 0-14.93333344-3.73333313-21.33333281-8.53333313-0.53333344-0.53333344-39.46666688-29.86666687-46.93333313-52.8-3.19999969-9.6 3.19999969-14.93333344 9.6-20.26666687 2.13333375-1.60000031 3.73333313-3.19999969 5.86666594-5.33333344 4.26666656-4.26666656 9.6-9.06666656 14.4-13.33333313 7.99999969-6.93333375 16.00000031-14.4 21.33333375-21.33333375 0.53333344-0.53333344 1.06666687-1.06666687 1.60000031-1.06666687 6.93333375-2.13333375 18.66666656 2.13333375 27.19999969 5.86666687 5.86666687 2.66666625 19.73333344 10.13333344 22.39999969 19.73333344 0.53333344 1.06666687 0 2.66666625-1.06666688 3.73333313-3.19999969 2.66666625-5.86666687 4.8-8.53333312 7.46666718-5.33333344 4.8-10.13333344 8.53333312-13.86666657 12.26666625-2.66666625 2.66666625-6.40000031 4.8-9.06666656 6.40000032-3.73333313 2.66666625-6.93333375 4.26666656-7.99999969 6.93333281-3.19999969 7.99999969 1.60000031 14.4 6.93333281 22.40000062 3.19999969 4.26666656 6.40000031 9.06666656 8.53333313 14.4 5.33333344 12.79999969 2.66666625 18.66666656-1.06666594 21.33333282-2.13333375 1.06666687-5.33333344 2.13333375-8.00000062 2.13333375z m-12.79999969-116.80000032c-5.86666687 6.93333375-13.86666656 13.86666656-21.33333375 20.80000032-4.8 4.26666656-10.13333344 9.06666656-14.4 13.33333312-2.13333375 2.13333375-4.26666656 3.73333313-6.39999937 5.33333344-6.40000031 5.33333344-9.06666656 7.99999969-7.46666719 13.33333312 5.86666687 17.59999969 34.13333344 41.59999969 44.26666687 49.60000032 9.06666656 6.93333375 18.13333313 8.53333312 20.80000032 6.40000031 2.13333375-1.60000031 1.60000031-6.93333375-1.06666688-13.8666675-2.13333375-4.8-4.8-9.06666656-7.99999969-13.33333313-5.86666687-8.53333312-11.73333375-17.59999969-7.46666718-28.8 1.60000031-4.26666656 5.86666687-7.46666625 10.66666687-10.13333343 2.66666625-1.60000031 5.86666687-3.73333313 7.99999969-5.86666594 3.73333313-3.73333313 8.53333312-7.46666625 14.4-12.26666719 2.13333375-1.60000031 4.26666656-3.73333313 6.93333375-5.86666687-4.8-9.06666656-29.86666687-19.73333344-38.93333344-18.66666657z" fill="#804F21" p-id="3987"></path><path d="M534.93333313 885.86666656c0.53333344 0-0.53333344 1.06666687-0.53333344 1.06666688-5.33333344 14.4 9.06666656 24.53333344 15.46666687 39.46666687 10.13333344 24.53333344-10.13333344 22.39999969-25.06666687 11.19999938-9.6-7.46666625-39.46666688-32.53333312-45.86666625-51.19999969-3.19999969-9.06666656 4.8-13.33333313 12.26666625-19.73333344l2.13333375-2.13333281c11.73333375 11.20000031 37.86666656 21.33333375 41.59999969 21.33333281z" fill="#A4B3E0" p-id="3988"></path><path d="M543.99999969 949.33333344c-6.93333375 0-14.93333344-3.73333313-21.33333281-8.53333313-0.53333344-0.53333344-39.46666688-29.86666687-46.93333313-52.8-3.19999969-9.6 3.19999969-14.93333344 9.6-20.26666687 1.06666687-1.06666687 2.13333375-2.13333375 3.73333313-3.19999969l2.13333281-2.13333375c1.06666687-1.06666687 3.19999969-1.60000031 4.8 0 10.66666687 10.13333344 36.26666625 20.26666688 39.46666687 20.26666687 1.06666687 0 2.66666625 1.06666687 3.19999969 2.13333282 1.06666687 2.13333375-0.53333344 3.73333313-0.5333325 4.26666656-2.66666625 7.46666625 1.60000031 13.86666656 6.93333281 21.86666719 3.19999969 4.26666656 6.40000031 9.06666656 8.53333313 14.4 5.33333344 12.79999969 2.66666625 18.66666656-1.06666594 21.33333281-2.66666625 1.60000031-5.86666687 2.66666625-8.53333406 2.66666719z m-50.66666625-79.99999969c-1.60000031 1.06666687-2.66666625 2.13333375-3.73333313 3.19999969-6.40000031 5.33333344-9.06666656 7.99999969-7.46666718 13.33333312 5.86666687 17.59999969 34.13333344 41.59999969 44.26666687 49.60000031 9.06666656 6.93333375 18.13333313 8.53333312 20.80000031 6.39999938 2.13333375-1.60000031 1.60000031-6.93333375-1.06666687-13.86666656-2.13333375-4.8-4.8-9.06666656-7.99999969-13.33333313-5.33333344-7.99999969-11.20000031-16.00000031-8.53333406-26.13333281-7.99999969-2.66666625-25.60000031-10.66666687-36.26666625-19.2z" fill="#804F21" p-id="3989"></path><path d="M390.93333313 614.93333375s-42.66666656 11.20000031-56.53333313 35.19999938c-13.33333313 23.46666656-34.66666688 33.06666656-29.33333344 37.86666656 5.33333344 5.33333344 73.60000031 54.93333375 86.4 83.73333375 23.46666656-5.86666687 40.53333375-16.53333375 40.53333375-16.53333375s77.33333344 63.46666688 81.06666656 70.40000062c7.46666625-9.6 55.46666625-76.8 91.73333344-82.66666687-7.46666625-21.33333375-73.06666687-57.6-73.06666687-57.6l7.46666625-6.40000031-148.26666656-63.99999938z" fill="#2accb4" p-id="3990"></path><path d="M513.60000031 829.33333344c-1.06666687 0-2.13333375-0.53333344-2.66666718-1.60000032-3.19999969-4.8-49.06666688-43.2-78.93333282-67.73333343-5.33333344 3.19999969-19.73333344 10.66666687-39.46666687 15.46666687-1.60000031 0.53333344-3.19999969-0.53333344-3.73333313-2.13333281-10.13333344-22.39999969-56.53333312-59.20000031-76.26666656-75.20000063-5.33333344-4.26666656-8.53333312-6.40000031-9.6-7.46666625-1.06666687-1.06666687-1.60000031-2.66666625-1.60000031-4.26666656 0-3.73333313 3.19999969-6.93333375 9.06666656-12.26666719 6.40000031-5.86666687 14.93333344-13.86666656 21.33333375-25.59999937 13.86666656-24.53333344 56.53333312-36.26666625 58.1333325-36.80000063h2.13333375l148.8 63.46666688c1.06666687 0.53333344 1.60000031 1.60000031 2.13333375 2.66666625 0 1.06666687 0 2.13333375-1.06666687 3.20000062l-3.73333313 3.73333313c14.93333344 8.53333312 63.46666688 37.86666656 70.39999969 57.06666656 0.53333344 1.06666687 0 2.13333375 0 2.66666719-0.53333344 1.06666687-1.60000031 1.60000031-2.13333375 1.59999937-30.93333375 5.33333344-72 59.20000031-85.86666657 76.8-1.60000031 2.13333375-2.66666625 3.73333313-3.73333312 4.8-1.06666687 1.06666687-2.13333375 1.60000031-3.19999969 1.60000032z m-81.06666656-76.8c0.53333344 0 1.60000031 0 2.13333281 0.53333343 11.73333375 9.6 65.06666625 53.86666687 78.93333375 67.73333344 0.53333344-0.53333344 0.53333344-1.06666687 1.06666594-1.60000031 13.33333313-17.59999969 52.8-69.33333375 85.8666675-78.40000031-10.66666687-17.06666625-52.8-43.2-69.33333375-52.26666657-1.06666687-0.53333344-1.60000031-1.60000031-1.60000031-2.66666625s0.53333344-2.13333375 1.06666687-2.66666718l3.73333313-3.19999969L390.93333313 618.66666688c-6.40000031 2.13333375-41.59999969 12.79999969-53.33333344 33.06666656-7.46666625 12.79999969-16.00000031 21.33333375-22.93333313 27.19999969-2.66666625 2.66666625-5.86666687 5.33333344-6.93333281 6.93333375 1.06666687 1.06666687 4.8 3.73333313 8.53333313 6.93333281 19.73333344 15.46666687 64.53333375 51.19999969 77.33333343 75.20000062 21.33333375-5.86666687 36.79999969-15.46666687 36.79999969-15.46666687h2.13333375z" fill="#804F21" p-id="3991"></path><path d="M532.80000031 492.8s-49.60000031 48.53333344-162.13333406 89.59999969c-27.19999969 9.6-22.39999969 35.20000031-16.53333281 41.06666719 5.86666687 5.86666687 51.73333313 50.13333375 89.06666625 70.39999968 37.33333312 20.26666688 46.39999969 35.20000031 57.06666656 41.06666719 11.20000031 5.86666687 121.60000031-158.93333344 116.26666688-211.73333344s-83.73333375-30.40000031-83.73333282-30.40000031z" fill="#2accb4" p-id="3992"></path><path d="M500.79999969 738.66666688c-0.53333344 0-1.60000031 0-2.13333282-0.53333344-4.26666656-2.13333375-7.99999969-5.86666687-12.80000062-10.13333344-8.53333312-7.46666625-20.80000031-18.13333313-44.26666594-31.46666625-40.53333375-21.86666625-89.06666625-70.39999969-89.60000062-70.93333406-3.73333313-3.73333313-6.93333375-13.33333313-4.8-23.46666657 1.60000031-7.46666625 6.93333375-17.59999969 22.40000062-23.46666656 109.86666656-39.46666688 160.00000031-88.00000031 160.53333281-88.53333281 0.53333344-0.53333344 1.06666687-0.53333344 1.60000032-1.06666687 2.13333375-0.53333344 46.93333312-12.79999969 72 4.8 9.6 6.40000031 14.93333344 16.53333375 16.00000031 29.33333343 4.8 49.60000031-91.73333344 198.40000031-114.6666675 213.86666625-0.53333344 0.53333344-2.13333375 1.60000031-4.26666656 1.60000032z m1.06666687-6.40000032zM534.39999969 495.99999969c-6.40000031 5.86666687-57.6 51.73333313-162.66666657 89.60000062-12.79999969 4.8-17.06666625 12.79999969-18.13333312 18.66666656-1.60000031 7.46666625 0.53333344 14.93333344 2.66666625 17.06666625 0.53333344 0.53333344 48.53333344 48 88.00000031 69.86666719 24.53333344 13.33333313 36.79999969 24 45.86666719 31.99999969 4.26666656 3.73333313 7.46666625 6.93333375 11.19999937 8.53333312 16.00000031-6.40000031 116.80000031-158.4 112.00000032-207.99999937-1.06666687-10.66666687-5.33333344-18.66666656-13.33333313-24-20.80000031-14.4-59.73333375-5.33333344-65.60000062-3.73333406z" fill="#804F21" p-id="3993"></path><path d="M635.19999969 598.93333344s25.06666687 35.20000031 32.53333406 42.13333312c8.53333312 7.46666625 25.60000031 4.26666656 9.06666656-22.93333312-7.46666625-12.79999969 10.13333344-19.73333344 19.73333344-29.33333344 6.93333375-6.93333375 21.86666625-0.53333344 29.86666594 4.8 16.00000031 12.26666625 34.66666688 26.66666625 19.2 47.46666656-3.19999969 4.8-14.4 14.4-25.59999938 25.60000031-25.06666687 25.60000031-27.73333313 45.33333375-45.33333375 46.93333313-7.99999969 0.53333344-19.73333344 2.66666625-31.99999969-6.40000031-55.99999969-39.46666688-67.73333344-57.06666656-67.73333343-57.06666657l60.26666625-51.19999968z" fill="#FFE2C2" p-id="3994"></path><path d="M664.53333313 718.4c-6.93333375 0-16.00000031-1.60000031-24.53333344-7.46666625-55.99999969-39.46666688-68.26666687-57.06666656-68.79999938-58.13333344-1.06666687-1.60000031-0.53333344-3.19999969 0.53333344-4.26666656l60.79999969-51.73333406c0.53333344-0.53333344 1.60000031-1.06666687 2.66666625-0.53333344 1.06666687 0 1.60000031 0.53333344 2.13333375 1.60000031 8.53333312 12.26666625 26.13333375 36.26666625 31.99999969 41.59999969 2.66666625 2.66666625 6.93333375 3.73333313 9.06666656 2.13333375 2.13333375-1.60000031 2.13333375-8.53333312-4.8-20.80000031s3.73333313-20.26666688 12.26666719-26.66666625c2.66666625-2.13333375 5.86666687-4.26666656 8.53333312-6.93333375 8.53333312-7.99999969 25.06666687-2.13333375 34.13333344 4.8 14.93333344 11.20000031 37.86666656 28.26666656 19.73333344 52.26666656-2.13333375 2.66666625-6.40000031 6.93333375-12.26666719 12.26666719-4.26666656 4.26666656-9.06666656 8.53333312-13.86666656 13.33333312-9.6 10.13333344-16.00000031 19.2-21.33333282 26.66666719-7.99999969 11.73333375-13.86666656 20.26666688-26.13333375 21.33333281h-1.06666687c-2.66666625 0-5.33333344 0.53333344-9.06666656 0.53333344z m-85.33333313-67.2c4.8 5.86666687 21.86666625 23.46666656 65.06666625 53.86666687 10.66666687 7.46666625 21.33333375 6.40000031 28.8 5.86666688h1.06666688c9.06666656-1.06666687 13.33333313-7.46666625 21.33333375-18.13333406 5.33333344-7.46666625 11.73333375-17.06666625 21.86666625-27.73333313l13.86666656-13.86666656c5.33333344-4.8 9.6-9.06666656 11.73333375-11.73333375 12.79999969-17.06666625 0-28.8-18.13333313-42.66666656-7.46666625-5.33333344-20.26666688-10.13333344-25.06666687-5.33333344-2.66666625 2.66666625-5.86666687 4.8-9.06666656 7.46666719-10.13333344 7.46666625-13.86666656 11.20000031-10.13333344 17.59999969 11.20000031 19.2 6.93333375 26.66666625 3.73333312 29.33333343-4.8 3.73333313-12.26666625 2.66666625-18.13333312-2.13333281-6.40000031-5.86666687-24.53333344-30.93333375-30.93333375-39.46666688l-55.99999969 46.93333313z" fill="#804F21" p-id="3995"></path><path d="M612.8 558.93333312c-10.66666687-13.33333313-26.66666625-22.39999969-44.26666688-23.46666656-23.46666656-1.60000031-51.73333313 24.53333344-51.73333312 79.46666719 0 30.93333375 76.8 65.06666625 76.8 65.06666625s33.6-51.19999969 63.46666687-60.79999969c-19.2-28.26666656-34.66666688-48.53333344-44.26666687-60.26666719z" fill="#75BEEA" p-id="3996"></path><path d="M593.6 683.73333313c-0.53333344 0-1.06666687 0-1.60000031-0.53333344 0 0-19.73333344-8.53333312-38.93333344-21.33333282-26.66666625-17.06666625-40.00000031-33.06666656-39.99999937-46.93333312 0-30.40000031 8.53333312-55.46666625 24.53333343-70.40000063 9.06666656-8.53333312 20.26666688-13.33333313 30.93333282-12.26666625 17.59999969 1.06666687 34.66666688 10.13333344 46.40000062 24.53333344 9.6 12.26666625 25.60000031 32.53333312 44.26666594 60.26666625 0.53333344 1.06666687 0.53333344 2.13333375 0.53333344 3.19999969-0.53333344 1.06666687-1.06666687 1.60000031-2.13333282 2.13333375-28.26666656 9.06666656-61.33333313 59.20000031-61.33333406 59.73333375-0.53333344 1.06666687-1.60000031 1.60000031-2.66666625 1.59999937z m-26.66666625-144.53333344c-8.53333312 0-17.06666625 3.73333313-24 10.66666687-14.4 13.33333313-22.39999969 36.79999969-22.40000062 65.59999969 0 22.39999969 49.60000031 50.13333375 72 60.80000063 6.93333375-10.13333344 33.06666656-46.93333312 59.20000031-58.13333344-17.59999969-26.13333375-32.53333312-44.80000031-41.59999969-56.53333313-10.66666687-12.79999969-25.60000031-21.33333375-41.60000062-21.86666718-0.53333344-0.53333344-1.06666687-0.53333344-1.59999938-0.53333344z" fill="#804F21" p-id="3997"></path><path d="M755.19999969 513.06666687c10.13333344-16.00000031-28.26666656-31.46666625 57.6-117.33333375 20.26666688-20.26666688 31.99999969-48.53333344 38.93333344-78.93333281 15.46666687-67.73333344-61.86666656-172.26666656-185.06666626-217.06666687-6.40000031-2.13333375-36.26666625-16.53333375-43.73333343-16.00000032-3.19999969 0 22.93333313 35.20000031 19.73333344 35.20000032-12.26666625 0.53333344-92.80000031-30.40000031-104.00000063-28.8-12.79999969 2.13333375 18.66666656 40.53333375 7.46666719 44.26666687-14.4 4.8-75.19999969-7.46666625-74.66666719 5.86666594 1.60000031 18.13333313 11.20000031 27.19999969 13.33333406 40.00000031 1.60000031 12.79999969-51.73333313 2.13333375-59.20000031 12.79999969-9.6 13.86666656 28.26666656 34.13333344 22.93333313 50.13333375-2.66666625 7.99999969-30.93333375 4.26666656-33.06666657 12.79999969-3.73333313 16.00000031 16.00000031 29.86666687 15.46666688 45.33333375 0 6.40000031-13.33333313 10.13333344-12.79999969 16.53333281 0.53333344 7.46666625 14.93333344 17.59999969 15.99999938 25.06666687 2.66666625 17.06666625 6.93333375 33.6 12.80000062 48 39.46666688 98.13333375 162.66666656 167.46666656 226.1333325 160.53333375s37.33333312-29.33333344 55.46666719-36.26666718l26.66666625-2.13333282z" fill="#2accb4" p-id="3998"></path><path d="M665.6 554.13333313c-64.53333375 0-181.33333312-65.06666625-220.8-163.20000001-5.86666687-14.93333344-10.13333344-30.93333375-12.79999969-48.53333343-0.53333344-2.66666625-3.73333313-6.40000031-6.93333375-10.13333344-4.26666656-5.33333344-8.53333312-10.13333344-9.06666656-14.9333325-0.53333344-5.33333344 3.73333313-8.53333312 7.99999969-11.20000031 2.66666625-2.13333375 5.33333344-3.73333313 5.33333344-5.86666688 0-6.40000031-3.73333313-12.79999969-7.46666625-19.2-4.8-8.53333312-10.13333344-17.06666625-8.00000063-26.66666625 1.60000031-6.40000031 10.13333344-7.46666625 19.2-9.06666656 4.8-0.53333344 13.33333313-2.13333375 13.8666675-4.2666675 2.13333375-5.86666687-4.8-13.86666656-11.73333375-21.33333281-8.53333312-9.6-17.06666625-19.73333344-10.66666687-29.33333344 4.26666656-6.40000031 17.59999969-6.93333375 33.6-6.93333375 9.6 0 22.93333313-0.53333344 25.06666687-3.19999969v-0.53333344c-0.53333344-5.33333344-2.66666625-9.6-5.33333344-14.93333343-3.19999969-6.93333375-6.93333375-14.4-7.99999968-25.59999938 0-2.13333375 0.53333344-4.26666656 2.13333281-5.86666687 5.33333344-5.33333344 20.26666688-4.8 44.26666687-3.73333313 12.26666625 0.53333344 25.60000031 1.60000031 30.40000032 0 1.06666687-2.13333375-3.73333313-12.26666625-6.40000032-17.60000062-4.8-9.6-8.53333312-18.13333313-5.86666687-23.46666657 0.53333344-1.60000031 2.13333375-3.19999969 5.33333344-3.73333312 6.40000031-1.06666687 25.06666687 4.8 56.00000062 14.93333344 16.00000031 5.33333344 34.13333344 11.20000031 43.2 13.33333312-2.13333375-3.19999969-4.8-7.99999969-7.46666719-11.73333281-10.66666687-16.53333375-11.73333375-18.13333313-10.13333344-20.80000031 0.53333344-1.06666687 2.13333375-2.13333375 3.20000063-2.13333375 5.86666687 0 19.2 5.86666687 35.73333281 12.80000062 4.26666656 1.60000031 7.46666625 3.19999969 9.06666657 3.73333313 129.6 46.93333312 202.66666687 154.13333344 187.2 220.8-7.99999969 35.20000031-21.33333375 61.86666656-39.99999938 80.53333312-61.86666656 61.86666656-58.13333344 86.4-55.46666719 100.8 1.06666687 5.86666687 1.60000031 10.66666687-1.60000031 16.00000031-0.53333344 1.06666687-1.60000031 1.60000031-2.66666625 1.59999938l-25.60000031 1.06666687c-4.26666656 1.60000031-4.8 4.26666656-5.86666594 8.53333313-3.19999969 12.26666625-9.06666656 22.93333313-50.13333375 27.73333406-3.73333313 1.60000031-6.93333375 2.13333375-9.6 2.13333281zM492.8 136.53333313c-7.99999969 0-14.4 0.53333344-16.53333375 2.66666718v0.53333344c0.53333344 9.6 4.26666656 16.53333375 7.46666719 22.93333312 2.66666625 5.33333344 5.33333344 10.66666687 5.86666687 16.53333282 0.53333344 2.13333375-0.53333344 4.26666656-1.60000031 5.86666687-4.26666656 4.8-16.00000031 5.33333344-29.86666687 5.33333344-10.13333344 0-25.60000031 0.53333344-27.73333313 3.73333312-3.19999969 4.8 2.13333375 11.20000031 10.66666687 21.33333375 7.99999969 9.06666656 16.00000031 18.66666656 12.79999969 28.26666657-2.13333375 5.86666687-10.66666687 6.93333375-19.2 8.53333312-4.26666656 0.53333344-13.33333313 2.13333375-13.33333312 3.73333313-1.60000031 7.46666625 2.66666625 14.4 6.93333281 21.86666718 4.26666656 6.93333375 8.53333312 14.4 8.53333406 22.93333313 0 4.8-4.26666656 7.99999969-8.00000062 10.66666687-2.13333375 1.60000031-5.33333344 3.73333313-5.33333344 5.33333344 0 2.66666625 4.26666656 7.46666625 7.46666719 11.19999938 4.26666656 4.8 7.99999969 9.06666656 8.53333312 13.33333406 2.66666625 17.06666625 6.93333375 32.53333312 12.26666719 46.93333312 40.00000031 99.73333313 162.66666656 164.80000031 222.39999937 158.4 39.46666688-4.26666656 42.13333313-14.4 44.26666688-22.40000062 1.06666687-4.8 2.66666625-10.66666687 10.66666688-13.33333313h1.06666687l24-1.06666687c1.06666687-2.66666625 0.53333344-5.33333344 0-10.1333325-2.66666625-16.00000031-6.93333375-42.13333313 57.6-106.66666688 17.59999969-17.59999969 30.40000031-43.2 38.4-77.33333343 18.13333313-77.33333344-81.6-176.53333313-182.93333344-212.80000032-1.60000031-0.53333344-5.33333344-2.13333375-9.6-3.73333312-7.46666625-3.19999969-19.73333344-8.53333312-27.20000062-10.66666688 2.13333375 3.19999969 4.8 7.99999969 6.93333375 11.20000032 10.66666687 16.53333375 11.73333375 18.13333313 10.13333344 20.80000031-0.53333344 1.06666687-1.60000031 2.13333375-3.20000063 2.13333281-6.40000031 0.53333344-23.46666656-5.33333344-50.66666625-13.86666656-20.26666688-6.40000031-47.46666656-15.46666687-52.8-14.93333344h-0.53333344c-1.06666687 2.13333375 3.73333313 11.73333375 6.40000032 17.06666719 4.8 9.6 8.53333312 17.59999969 6.39999937 22.93333312-0.53333344 1.60000031-2.13333375 3.19999969-4.26666656 3.73333313-6.40000031 2.13333375-18.66666656 1.06666687-33.06666656 0.53333344-6.93333375-1.06666687-15.46666687-1.60000031-22.93333313-1.60000032z m262.39999969 376.53333374z" fill="#804F21" p-id="3999"></path><path d="M765.33333312 507.2c9.6-14.93333344-51.19999969-8.53333312 48.00000001-112.00000031 4.8-5.33333344-2.13333375-24.53333344-48.53333344-12.26666625-7.99999969 2.13333375-53.86666687 11.20000031-59.19999938-4.8-1.60000031-4.26666656 11.20000031-6.93333375 15.46666594-17.06666719 5.33333344-12.26666625-61.86666656 25.60000031-61.33333313 10.13333344 0.53333344-16.53333375 2.66666625-28.8-3.19999968-33.06666656-5.86666687-4.26666656-25.60000031-8.53333312-38.4 1.60000031-33.06666656 25.60000031-16.53333375 61.86666656-3.19999969 79.99999969-5.86666687 2.66666625-14.93333344 5.33333344-22.40000063 5.33333343-2.13333375 0-7.99999969-2.13333375-11.73333281-3.73333312-5.33333344-2.66666625-9.6-4.8-12.80000062-4.26666656-6.40000031 1.06666687-4.26666656 8.53333312-10.66666594 9.06666656-9.06666656 1.06666687-17.59999969-7.99999969-26.13333375-6.93333375-5.86666687 0.53333344-2.13333375 11.73333375-7.46666625 12.26666719-4.26666656 0.53333344-19.2-8.53333312-22.93333406-8.53333313-4.8 0.53333344 3.73333313 16.00000031 0 16.53333281-13.86666656 2.66666625-23.46666656 1.06666687-18.13333313 7.46666719 2.13333375 2.13333375 3.73333313 4.8 5.86666688 6.93333281 54.40000031 62.4 137.06666625 101.33333344 185.59999969 96 63.46666688-6.93333375 37.33333312-29.33333344 55.46666718-36.26666625 25.60000031-0.53333344 30.40000031 2.13333375 35.73333281-6.40000031z" fill="#FFE2C2" p-id="4000"></path><path d="M664.53333313 554.13333313c-52.8 0-130.66666688-42.13333313-179.19999938-97.59999938-2.13333375-2.13333375-3.73333313-4.8-5.86666687-6.93333375-0.53333344-1.06666687-3.19999969-3.73333313-2.13333375-6.93333375 1.60000031-3.19999969 5.33333344-3.73333313 12.26666718-4.8 2.66666625-0.53333344 4.8-0.53333344 7.99999969-1.06666594 0-1.06666687-0.53333344-2.66666625-1.06666687-3.73333406-1.06666687-4.26666656-2.13333375-8.53333312-0.53333344-11.19999938 1.06666687-1.06666687 2.13333375-2.13333375 3.73333406-2.13333375 2.66666625-0.53333344 6.40000031 1.60000031 12.79999969 4.26666657 3.19999969 1.60000031 7.99999969 3.73333313 9.6 3.73333406 0.53333344-0.53333344 0.53333344-2.13333375 0.53333344-3.20000063 0.53333344-3.19999969 1.60000031-8.53333312 6.93333281-9.06666656 4.8-0.53333344 9.6 1.60000031 13.86666656 3.73333313 4.26666656 2.13333375 7.99999969 3.73333313 11.73333375 3.20000062 1.06666687 0 1.60000031-0.53333344 2.66666625-2.66666719s3.19999969-5.86666687 8.00000063-6.39999937c3.73333313-0.53333344 7.99999969 1.60000031 14.4 4.26666656 4.26666656 2.13333375 9.06666656 3.73333313 10.13333343 3.73333313 5.33333344 0 11.73333375-1.60000031 17.06666625-3.19999969-16.53333375-24.53333344-22.93333313-58.13333344 6.40000032-81.0666675 13.33333313-10.66666687 35.20000031-6.93333375 42.13333312-1.59999938 6.40000031 4.8 5.86666687 14.93333344 4.8 28.8 0 2.13333375 0 4.8-0.53333344 7.46666625 3.19999969 2.13333375 22.39999969-4.8 32.53333313-9.06666656 18.66666656-6.93333375 24.53333344-9.06666656 27.73333406-5.33333344 0.53333344 0.53333344 2.13333375 2.66666625 0.5333325 5.33333344-2.66666625 6.40000031-7.99999969 9.6-11.73333281 12.26666719-1.06666687 1.06666687-2.66666625 2.13333375-3.19999969 2.66666625 4.26666656 10.13333344 38.4 6.40000031 54.93333281 2.13333375 38.4-9.6 49.60000031 1.06666687 52.8 6.39999937 2.66666625 4.26666656 2.13333375 9.06666656-0.53333343 11.73333375-71.46666656 74.66666625-57.6 89.59999969-50.66666625 97.59999938 3.19999969 3.19999969 6.93333375 7.46666625 3.19999968 13.8666675-4.8 7.99999969-10.13333344 7.99999969-22.93333312 7.99999969-4.26666656 0-9.06666656 0-15.46666688 0.53333343-4.26666656 1.60000031-4.8 4.26666656-5.86666687 8.53333313-3.19999969 12.26666625-9.06666656 22.93333313-50.13333281 27.73333312 0-0.53333344-3.19999969 0-6.93333375 0zM485.33333375 445.33333344c1.60000031 2.13333375 3.73333313 4.26666656 5.3333325 6.40000031 43.73333344 50.13333375 125.86666688 100.8 182.4 94.93333312 39.46666688-4.26666656 42.13333313-13.86666656 44.26666688-22.40000062 1.06666687-4.8 2.66666625-10.66666687 10.66666687-13.33333313h1.06666688c6.40000031-0.53333344 11.73333375-0.53333344 15.99999937-0.53333343 12.79999969 0 13.86666656 0 17.06666719-4.8 1.06666687-1.60000031 1.06666687-1.60000031-2.13333375-5.33333344-9.6-10.66666687-25.06666687-27.73333313 50.66666719-106.66666594 0.53333344-0.53333344 0.53333344-2.13333375-0.53333344-3.73333406-3.19999969-5.86666687-17.06666625-10.13333344-44.80000031-3.19999969-0.53333344 0-56.53333312 14.4-63.46666688-6.93333281-1.60000031-4.26666656 2.66666625-7.46666625 6.40000031-9.6 2.66666625-1.60000031 5.86666687-3.73333313 7.46666719-6.93333375-4.26666656 1.06666687-12.26666625 4.26666656-18.13333406 6.40000031-20.26666688 7.46666625-33.6 12.26666625-38.93333344 7.99999969-1.60000031-1.06666687-2.66666625-3.19999969-2.66666625-5.86666688 0-2.66666625 0-4.8 0.53333344-7.46666625 0.53333344-10.66666687 1.06666687-20.26666688-2.13333375-22.93333312-4.8-3.73333313-22.93333313-7.46666625-34.13333344 1.59999937-34.13333344 26.66666625-10.66666687 64.53333375-2.66666625 75.73333313 0.53333344 1.06666687 1.06666687 2.13333375 0.53333344 2.66666719-0.53333344 1.06666687-1.06666687 1.60000031-2.13333375 2.13333281-6.40000031 2.66666625-16.00000031 5.86666687-24 5.33333344-3.19999969 0-9.6-2.66666625-13.33333313-4.26666657-3.73333313-1.60000031-9.06666656-4.26666656-10.66666687-3.73333312-1.06666687 0-1.60000031 0.53333344-2.66666625 2.66666625s-3.19999969 5.86666687-7.99999969 6.40000031c-5.86666687 0.53333344-10.66666687-1.60000031-15.46666687-3.73333312-3.73333313-1.60000031-7.46666625-3.19999969-10.66666688-3.19999969-0.53333344 0.53333344-0.53333344 2.66666625-1.06666687 3.73333312-0.53333344 3.19999969-1.60000031 7.99999969-6.39999938 8.53333313-3.19999969 0.53333344-6.93333375-1.60000031-13.8666675-4.8-2.13333375-1.06666687-5.33333344-2.66666625-7.46666625-3.19999969 0 1.06666687 0.53333344 3.19999969 1.06666688 4.26666656 1.06666687 4.26666656 2.13333375 7.46666625 0.53333343 10.13333344-0.53333344 1.06666687-1.60000031 1.60000031-3.20000062 2.13333281-3.73333313 0.53333344-7.46666625 1.06666687-10.13333344 1.60000032-1.60000031-0.53333344-3.73333313 0-5.3333325 0z m279.99999938 61.86666656z" fill="#804F21" p-id="4001"></path><path d="M746.13333313 426.66666688c-1.06666687 0-1.60000031-0.53333344-2.66666626-1.06666688-11.20000031-11.73333375-21.33333375-17.59999969-29.33333343-16.53333375-8.53333312 1.06666687-12.26666625 8.53333312-12.79999969 9.0666675-1.06666687 1.60000031-2.66666625 2.13333375-4.8 1.59999938-1.60000031-1.06666687-2.13333375-2.66666625-1.60000031-4.8 0-0.53333344 5.86666687-10.66666687 17.59999968-12.26666625 10.66666687-1.60000031 22.93333313 4.8 35.73333375 18.66666656 1.06666687 1.60000031 1.06666687 3.73333313 0 4.8-0.53333344 0-1.06666687 0.53333344-2.13333375 0.53333344z" fill="#804F21" p-id="4002"></path><path d="M714.39637812 447.72779656a8.53333313 11.20000031 26.821 1 0 10.10698407-19.99021968 8.53333313 11.20000031 26.821 1 0-10.10698407 19.99021968Z" fill="#6A3906" p-id="4003"></path><path d="M701.86666625 524.26666625c-6.40000031 0-16.00000031-3.19999969-28.26666656-15.46666594-29.86666687-28.26666656-29.86666687-31.46666625-29.33333344-33.06666656 0-1.60000031 2.13333375-3.19999969 3.73333406-3.20000062 1.60000031 0 2.66666625 1.06666687 2.66666625 2.66666718 0.53333344 1.06666687 4.26666656 6.93333375 27.19999969 28.26666657 11.20000031 10.66666687 21.33333375 15.46666687 27.20000062 12.79999968 3.73333313-1.60000031 4.8-5.33333344 4.8-7.46666625 0-2.13333375 1.60000031-3.19999969 3.19999969-3.20000062s3.19999969 1.60000031 3.19999969 3.20000062c0 4.8-2.66666625 11.20000031-9.06666656 13.86666657-1.06666687 1.06666687-3.19999969 1.60000031-5.33333344 1.59999937z m-51.19999969-47.46666656z m0 0z m0 0z" fill="#804F21" p-id="4004"></path><path d="M658.13333375 376.53333312s4.26666656-19.73333344 3.19999969-25.06666687c-1.06666687-5.86666687-5.86666687-25.06666687-28.8-18.66666656-22.93333313 6.40000031-60.26666625 41.59999969-11.20000031 96" fill="#FFE2C2" p-id="4005"></path><path d="M620.79999969 432.53333375c-1.06666687 0-1.60000031-0.53333344-2.66666625-1.06666687-26.66666625-29.86666687-27.19999969-52.8-22.93333313-66.66666657 5.33333344-18.66666656 22.39999969-31.46666625 35.73333281-35.20000031 8.53333312-2.13333375 15.46666687-1.60000031 21.33333375 2.13333375s9.6 10.13333344 11.73333282 19.2c1.06666687 5.86666687-2.13333375 23.46666656-3.19999969 26.66666625-0.53333344 1.60000031-2.13333375 3.19999969-4.26666656 2.66666625-1.60000031-0.53333344-3.19999969-2.13333375-2.66666719-4.26666656 1.60000031-7.46666625 3.73333313-20.26666688 2.66666719-24-1.60000031-7.46666625-4.26666656-12.26666625-8.53333313-14.93333344s-9.6-2.66666625-16.00000031-1.06666594c-11.73333375 3.19999969-26.13333375 13.86666656-30.93333375 30.39999938-5.33333344 18.13333313 2.13333375 38.93333344 21.86666719 60.26666719 1.06666687 1.60000031 1.06666687 3.73333313 0 4.8-0.53333344 0.53333344-1.06666687 1.06666687-2.13333375 1.06666687z" fill="#804F21" p-id="4006"></path><path d="M392 772.26666687s21.86666625-5.33333344 40.53333375-16.53333374 19.73333344-11.73333375 19.7333325-11.73333282" fill="#FF8031" p-id="4007"></path><path d="M392 775.46666656c-1.60000031 0-2.66666625-1.06666687-3.19999969-2.66666625-0.53333344-1.60000031 0.53333344-3.73333313 2.66666625-4.26666656 0 0 21.86666625-5.33333344 39.46666688-16.00000031 17.59999969-10.66666687 19.73333344-11.73333375 20.26666687-11.73333375 1.60000031-1.06666687 3.73333313 0 4.8 1.60000031 1.06666687 1.60000031 0 3.73333313-1.60000031 4.8 0 0-2.13333375 1.06666687-19.73333344 11.73333375-18.66666656 11.20000031-40.53333375 16.53333375-41.59999969 17.06666625-0.53333344-0.53333344-1.06666687-0.53333344-1.06666687-0.53333344z" fill="#804F21" p-id="4008"></path><path d="M481.06666625 763.20000031s-25.06666687-10.66666687-42.66666656-5.33333344" fill="#FF8031" p-id="4009"></path><path d="M481.06666625 766.93333344c-0.53333344 0-1.06666687 0-1.06666594-0.53333344 0 0-24-10.13333344-40.53333375-5.33333344-1.60000031 0.53333344-3.73333313-0.53333344-4.26666656-2.13333281-0.53333344-1.60000031 0.53333344-3.73333313 2.13333375-4.2666675 18.66666656-5.86666687 44.26666688 4.8 45.33333281 5.33333344 1.60000031 0.53333344 2.66666625 2.66666625 1.60000031 4.26666656-0.53333344 1.60000031-1.60000031 2.66666625-3.20000062 2.66666719z" fill="#804F21" p-id="4010"></path><path d="M625.06666625 407.46666688c-1.06666687 0-2.13333375-0.53333344-2.66666625-1.60000032-13.86666656-19.73333344-9.06666656-31.46666625-5.33333344-37.33333312 5.33333344-7.46666625 14.93333344-11.20000031 21.33333375-9.6 1.60000031 0.53333344 2.66666625 2.13333375 2.66666625 4.26666656-0.53333344 1.60000031-2.13333375 2.66666625-4.26666656 2.66666625-2.66666625-0.53333344-9.6 1.06666687-13.86666656 6.93333375-4.8 6.93333375-3.19999969 17.06666625 5.33333343 29.33333344 1.06666687 1.60000031 0.53333344 3.73333313-1.06666687 4.8-0.53333344 0.53333344-1.06666687 0.53333344-2.13333375 0.53333343z" fill="#804F21" p-id="4011"></path><path d="M515.19999969 617.6s-14.93333344 19.73333344-26.66666625 26.66666625c-11.73333375 6.93333375-30.40000031 18.66666656-36.26666719 27.73333406-6.93333375 10.13333344-14.4 16.53333375-14.4 16.53333282l38.93333344 28.8s26.13333375-16.53333375 40.53333375-34.66666688c12.79999969-16.53333375 22.93333313-34.13333344 22.93333312-34.1333325s-22.39999969-26.13333375-25.06666687-30.93333375z" fill="#AAD170" p-id="4012"></path><path d="M476.79999969 720.53333375c-0.53333344 0-1.60000031 0-2.13333282-0.53333344l-38.93333343-28.8c-1.06666687-0.53333344-1.06666687-1.60000031-1.60000032-2.66666718s0.53333344-2.13333375 1.06666688-2.66666625c0 0 7.46666625-6.40000031 13.86666656-16.00000032 6.93333375-10.66666687 28.8-23.46666656 37.33333313-28.8 11.20000031-6.40000031 25.06666687-25.60000031 25.60000031-25.60000031 0.53333344-1.06666687 1.60000031-1.60000031 3.19999969-1.59999937 1.06666687 0 2.13333375 1.06666687 2.66666719 2.13333281 1.60000031 3.19999969 15.46666687 20.26666688 23.99999999 29.86666687 1.06666687 1.06666687 1.06666687 2.66666625 0.53333344 3.73333313 0 0-10.13333344 18.13333313-22.93333406 34.66666687-14.4 18.66666656-40.00000031 34.66666688-41.59999969 35.73333375 0 0.53333344-0.53333344 0.53333344-1.06666687 0.53333344z m-33.6-32.53333406l33.6 25.06666687c6.40000031-4.26666656 26.13333375-18.13333313 37.86666656-32.53333312 10.13333344-12.79999969 18.13333313-26.66666625 21.33333375-31.99999969-4.26666656-4.8-14.93333344-17.59999969-20.80000031-25.06666687-4.8 6.40000031-15.46666687 18.66666656-24.53333344 24-6.40000031 3.73333313-28.8 17.06666625-35.19999938 26.66666625-4.8 5.86666687-9.6 10.66666687-12.26666718 13.86666656z" fill="#804F21" p-id="4013"></path><path d="M699.2 611.19999969h-1.60000031c-6.40000031-1.06666687-11.20000031-4.26666656-12.26666625-7.99999969-1.06666687-3.19999969 0-5.86666687 3.19999969-8.53333313 0.53333344-0.53333344 1.06666687-1.06666687 1.60000031-2.13333375 3.19999969-3.19999969 6.93333375-7.46666625 11.73333281-6.39999937 2.66666625 0.53333344 4.26666656 2.66666625 5.86666688 6.39999937 1.06666687 2.66666625 2.13333375 11.73333375-2.13333282 16.00000032-1.60000031 1.60000031-3.73333313 2.66666625-6.40000031 2.66666625z m1.06666688-18.66666656c-1.06666687 0.53333344-3.73333313 3.19999969-4.8 4.26666656l-2.13333375 2.13333375c-0.53333344 0.53333344-1.06666687 1.06666687-1.06666688 1.60000031 0.53333344 1.06666687 2.66666625 2.66666625 6.93333375 3.19999969 1.06666687 0 1.60000031 0 1.60000031-0.53333344 1.60000031-1.60000031 1.06666687-7.46666625 0.53333344-9.6l-1.06666687-1.06666687z" fill="#804F21" p-id="4014"></path><path d="M719.46666687 613.33333344c-0.53333344 0-1.60000031 0-2.13333375-0.53333344-1.60000031-1.06666687-1.60000031-3.19999969-0.53333343-4.8 4.8-5.86666687 0-13.33333313 0-13.86666656-1.06666687-1.60000031-0.53333344-3.73333313 1.06666687-4.8 1.60000031-1.06666687 3.73333313-0.53333344 4.8 1.06666687 0.53333344 0.53333344 7.46666625 11.73333375 0 21.33333281-1.06666687 1.06666687-2.13333375 1.60000031-3.19999969 1.60000032z" fill="#804F21" p-id="4015"></path><path d="M729.60000031 622.93333344c-1.06666687 0-2.13333375-0.53333344-2.66666719-1.06666688-1.06666687-1.60000031-1.06666687-3.73333313 0.53333344-4.8 5.33333344-4.26666656 3.73333313-12.79999969 3.73333313-12.79999968-0.53333344-1.60000031 1.06666687-3.73333313 2.66666718-3.73333313 1.60000031-0.53333344 3.73333313 1.06666687 3.73333313 2.66666625 0 0.53333344 2.66666625 12.79999969-6.40000031 19.2 0 0-1.06666687 0.53333344-1.59999938 0.53333344z" fill="#804F21" p-id="4016"></path><path d="M737.6 631.46666656c-1.06666687 0-2.66666625-0.53333344-3.19999969-1.60000031-1.06666687-1.60000031 0-3.73333313 1.59999938-4.8 5.33333344-2.66666625 5.33333344-11.73333375 5.33333343-11.73333281 0-2.13333375 1.60000031-3.19999969 3.20000063-3.19999969 2.13333375 0 3.19999969 1.60000031 3.19999969 3.19999969 0 0.53333344 0 13.33333313-9.06666657 17.59999969 0 0.53333344-0.53333344 0.53333344-1.06666687 0.53333343z" fill="#804F21" p-id="4017"></path><path d="M337.06666625 589.86666687c-1.60000031 0-2.66666625-0.53333344-3.19999969-1.06666687 0 0-14.93333344-12.26666625-14.93333343-18.66666656 0-6.93333375 4.26666656-16.00000031 9.06666656-18.66666657 4.26666656-2.13333375 9.6-2.66666625 12.80000062-1.06666687 2.13333375 1.06666687 3.73333313 3.73333313 3.73333313 5.86666687 0 1.60000031-0.53333344 4.26666656-1.06666688 6.93333282 1.06666687 0.53333344 2.13333375 1.06666687 2.66666719 1.60000031 3.73333313 1.60000031 9.6 4.26666656 7.46666625 10.13333344-2.13333375 5.33333344-8.53333312 12.26666625-13.86666656 13.86666656-1.06666687 1.06666687-1.60000031 1.06666687-2.66666719 1.06666687z m-11.73333281-19.73333343c1.06666687 2.66666625 9.06666656 10.66666687 11.73333281 12.79999968 2.13333375-0.53333344 7.46666625-5.33333344 9.0666675-9.6-0.53333344-0.53333344-2.66666625-1.60000031-3.73333406-2.13333281-1.60000031-1.06666687-3.73333313-1.60000031-5.86666594-3.20000062-1.06666687-1.06666687-1.60000031-2.13333375-1.60000031-3.73333313 0.53333344-1.60000031 1.60000031-5.86666687 1.60000031-7.46666625v-0.53333344c-1.06666687-0.53333344-3.19999969-0.53333344-5.86666687 1.06666688-1.06666687 1.60000031-4.8 7.46666625-5.33333344 12.79999969z m21.86666625 3.73333312z m-21.86666625-3.73333312z" fill="#804F21" p-id="4018"></path><path d="M307.73333375 589.86666687c-1.06666687 0-2.13333375-0.53333344-2.66666719-1.60000031-1.06666687-1.60000031-0.53333344-3.73333313 1.06666688-4.8 1.06666687-0.53333344 4.26666656-3.19999969 4.8-6.40000031 0-1.60000031 2.13333375-3.19999969 3.73333312-2.66666625 1.60000031 0 3.19999969 2.13333375 2.66666719 3.73333312-1.06666687 6.40000031-6.93333375 10.66666687-8.00000063 11.20000032-0.53333344 0.53333344-1.06666687 0.53333344-1.59999937 0.53333343z" fill="#804F21" p-id="4019"></path><path d="M300.26666656 570.13333344c-1.06666687 0-2.66666625-0.53333344-3.19999969-1.60000031-1.06666687-1.60000031 0-3.73333313 1.59999938-4.8 0.53333344 0 9.06666656-4.8 18.6666675-3.73333313 1.60000031 0 3.19999969 1.60000031 3.19999969 3.73333313 0 1.60000031-1.60000031 3.19999969-3.73333313 3.20000062-7.46666625-0.53333344-14.93333344 3.19999969-14.93333344 3.19999969h-1.60000031z" fill="#804F21" p-id="4020"></path><path d="M315.73333344 551.46666688c-1.06666687 0-2.13333375-0.53333344-2.66666719-1.06666688-1.60000031-1.60000031-7.46666625-1.60000031-12.26666625-0.53333344-1.60000031 0.53333344-3.73333313-0.53333344-4.26666656-2.66666625-0.53333344-1.60000031 0.53333344-3.73333313 2.66666625-4.26666656 2.13333375-0.53333344 14.4-3.19999969 19.2 2.66666625 1.06666687 1.60000031 1.06666687 3.73333313-0.53333344 4.8-0.53333344 0.53333344-1.06666687 1.06666687-2.13333281 1.06666688z" fill="#804F21" p-id="4021"></path></svg>