<?xml version="1.0" standalone="no"?><!DOCTYPE svg PUBLIC "-//W3C//DTD SVG 1.1//EN" "http://www.w3.org/Graphics/SVG/1.1/DTD/svg11.dtd"><svg t="1726484225835" class="icon" viewBox="0 0 1024 1024" version="1.1" xmlns="http://www.w3.org/2000/svg" p-id="3997" xmlns:xlink="http://www.w3.org/1999/xlink" width="200" height="200"><path d="M723.53 450.15c3.77-247.41-197.87-359.49-211.4-366.78v-0.35l-0.38 0.17-0.35-0.17v0.35c-13.57 7.29-215.24 119.38-211.44 366.78-41.06 26.79-84.08 74.41-77.24 156.77 6.84 82.33 86.03 136.92 116.34 133.96 30.32-2.96 21.49-25.81 21.49-25.81l10.4-42.67s44.68 68.62 59.02 68.59c12.87-1.05 74.1-0.11 81.42 0h0.7c7.33-0.11 68.55-1.05 81.42 0 14.3 0 59.02-68.59 59.02-68.59l10.36 42.67s-8.79 22.85 21.52 25.81c30.32 2.96 109.51-51.63 116.35-133.96 6.85-82.32-36.17-129.98-77.23-156.77z m-211.78-3.63c-5.76-0.1-80.72-2.86-87.63-91.29 2.51-84.07 81.73-91.5 87.63-91.92 5.93 0.42 85.12 7.85 87.63 91.92-6.91 88.43-81.91 91.19-87.63 91.29zM467.44 872.82c0 10.08-8.02 18.21-17.89 18.21-9.96-0.07-17.99-8.21-17.93-18.17v-89.97c0-10.05 8.03-18.21 17.93-18.21 9.87 0 17.89 8.16 17.89 18.21v89.97-0.04zM533.3 921.55c0.06 10.1-8.07 18.34-18.17 18.42-10.1-0.08-18.24-8.32-18.18-18.42V787.77c0-10.19 8.13-18.46 18.14-18.46 10.05 0 18.21 8.27 18.21 18.46v133.78zM593.9 851.68c0 10.04-8.02 18.17-17.93 18.17-9.95-0.09-17.95-8.22-17.89-18.17v-64.19c0-10.01 8.02-18.14 17.89-18.14 9.91 0 17.93 8.13 17.93 18.14v64.19z" fill="#13b6eb" p-id="3998"></path></svg>